<svg xmlns="http://www.w3.org/2000/svg" width="40" height="40" viewBox="0 0 40 40">
    <g fill="#4A4A4A" fill-rule="nonzero">
        <path d="M30.64 17.544c-.168 0-.336 0-.504.028-1.456-3.5-4.676-5.992-8.372-6.608a3.098 3.098 0 0 0 1.372-2.604A3.13 3.13 0 0 0 20 5.224a2.306 2.306 0 0 0-2.296 2.296A2.306 2.306 0 0 0 20 9.816c.812 0 1.456-.672 1.456-1.456 0-.784-.644-1.456-1.456-1.456a.34.34 0 0 0-.336.336c0 .168.168.336.336.336.42 0 .784.336.784.784a.766.766 0 0 1-.784.784 1.625 1.625 0 0 1 0-3.248 2.468 2.468 0 0 1 2.464 2.464A2.45 2.45 0 0 1 20 10.824c-4.424 0-8.456 2.716-10.136 6.748-.168-.028-.336-.028-.504-.028a3.13 3.13 0 0 0-3.136 3.136 3.14 3.14 0 0 0 2.996 3.136 10.94 10.94 0 0 0 10.808 8.96 10.94 10.94 0 0 0 10.808-8.96c1.624-.084 2.94-1.456 2.94-3.136a3.13 3.13 0 0 0-3.136-3.136zm0 5.6h-.112c-.196 0-.336.112-.364.308A10.247 10.247 0 0 1 20 32.132c-5.096 0-9.38-3.64-10.164-8.68-.028-.168-.168-.308-.336-.308h-.14a2.468 2.468 0 0 1-2.464-2.464c0-1.54 1.456-2.8 3.08-2.38.168.056.364-.056.42-.224 1.512-3.92 5.376-6.58 9.604-6.58 4.228 0 8.092 2.66 9.604 6.58.056.168.252.252.42.224a2.449 2.449 0 0 1 3.08 2.38 2.486 2.486 0 0 1-2.464 2.464z"/>
        <path d="M16.64 17.656c1.036 0 1.904.84 1.904 1.904a.34.34 0 0 0 .336.336.361.361 0 0 0 .336-.336 2.57 2.57 0 0 0-2.576-2.576 2.57 2.57 0 0 0-2.576 2.576.34.34 0 0 0 .336.336.361.361 0 0 0 .336-.336c0-1.036.868-1.904 1.904-1.904zM23.36 16.984a2.57 2.57 0 0 0-2.576 2.576.34.34 0 0 0 .336.336.361.361 0 0 0 .336-.336c0-1.036.84-1.904 1.904-1.904s1.904.84 1.904 1.904a.34.34 0 0 0 .336.336.361.361 0 0 0 .336-.336 2.57 2.57 0 0 0-2.576-2.576zM24.536 25.44A4.535 4.535 0 0 0 20 20.904a4.535 4.535 0 0 0-4.536 4.536v.196c-.392.392-.56.952-.56 1.764 0 2.604 2.016 4.256 5.096 4.256s5.096-1.68 5.096-4.256c0-.812-.196-1.372-.56-1.764v-.196zm-6.552.308c.056.336.196.672.42.952.336.42.84.672 1.372.728H20c.98 0 1.848-.728 1.988-1.708.756-.028 1.4-.028 1.82.196A3.861 3.861 0 0 1 20 29.248a3.84 3.84 0 0 1-3.808-3.332c.42-.168 1.036-.196 1.792-.168zm.7-.448c.084-.672.644-1.204 1.316-1.204h.14c.728.084 1.26.728 1.176 1.456a1.321 1.321 0 0 1-1.456 1.176 1.245 1.245 0 0 1-.896-.476c-.224-.28-.336-.588-.28-.952zM20 21.576a3.838 3.838 0 0 1 3.836 3.612c-.504-.168-1.12-.196-1.848-.168a1.995 1.995 0 0 0-1.792-1.624 2.038 2.038 0 0 0-2.212 1.624c-.728-.028-1.344-.028-1.848.168.14-1.988 1.82-3.612 3.864-3.612zm4.424 5.824c0 2.632-2.268 3.584-4.424 3.584-2.156 0-4.424-.952-4.424-3.584 0-.252.028-.448.056-.616a4.52 4.52 0 0 0 4.34 3.22 4.554 4.554 0 0 0 4.34-3.22c.084.168.112.364.112.616zM9.36 18.944c-.952 0-1.736.784-1.736 1.736a.34.34 0 0 0 .336.336.361.361 0 0 0 .336-.336c0-.588.476-1.064 1.064-1.064a.34.34 0 0 0 .336-.336.34.34 0 0 0-.336-.336zM30.64 18.944a.34.34 0 0 0-.336.336c0 .168.168.336.336.336.588 0 1.064.476 1.064 1.064a.34.34 0 0 0 .336.336.361.361 0 0 0 .336-.336c0-.952-.784-1.736-1.736-1.736z"/>
    </g>
</svg>
