<svg xmlns="http://www.w3.org/2000/svg" width="40" height="40" viewBox="0 0 40 40">
    <path fill="#4A4A4A" fill-rule="nonzero" d="M35.753 13.184a.738.738 0 0 0-.379-.656l-.668-.377a1.182 1.182 0 0 0-1.079-.04l-7.149 3.35A4.71 4.71 0 0 0 24.71 16.9a4.032 4.032 0 0 1-2.11 1.451l-.208.06c-1.693-1.205-4.567-1.982-7.89-1.982-5.328 0-9.502 2-9.502 4.552 0 .077.004.153.012.228a.332.332 0 0 0-.01.113c.009.068.921 6.788 9.5 6.788 6.367 0 8.51-3.698 9.197-5.635l.952-.274a4.715 4.715 0 0 0 2.721-1.988 3.993 3.993 0 0 1 1.508-1.363l4.78-2.432a3.312 3.312 0 0 0 1.583-1.735l.468-1.272.001-.007a.725.725 0 0 0 .041-.22zm-10.481 4.122c.39-.522.911-.945 1.506-1.224l7.149-3.35a.475.475 0 0 1 .433.016l.669.376c.006.004.027.016.027.047 0 .032-.022.043-.03.047l-7.153 3.69a4.7 4.7 0 0 0-1.722 1.519 4.01 4.01 0 0 1-2.283 1.608l-.053.015c-.165-.395-.434-.768-.791-1.116a4.73 4.73 0 0 0 2.248-1.628zm-10.77-.191c4.446 0 8.248 1.536 8.749 3.439v.004c.037.139.057.28.057.422 0 .936-.807 1.807-2.123 2.484-1.078-1.302-3.695-2.159-6.682-2.159-2.976 0-5.602.86-6.68 2.16-1.318-.677-2.126-1.548-2.126-2.485 0-2.095 4.033-3.865 8.806-3.865zm6.024 6.654c-1.589.663-3.719 1.076-6.023 1.076-2.305 0-4.435-.413-6.023-1.076 1.007-1.059 3.39-1.776 6.023-1.776 2.645 0 5.019.716 6.023 1.776zm-6.023 3.653c-4.835 0-7.033-2.195-8.022-3.971 1.672 1.26 4.609 2.081 8.022 2.081 3.413 0 6.35-.82 8.022-2.081-.989 1.776-3.187 3.97-8.022 3.97zM33.34 15.806l-4.783 2.433a4.719 4.719 0 0 0-1.788 1.625 4.004 4.004 0 0 1-2.31 1.675l-.53.152c.053-.223.072-.36.073-.37a.332.332 0 0 0-.009-.113 2.33 2.33 0 0 0-.005-.493l.06-.016a4.707 4.707 0 0 0 2.681-1.889c.37-.543.878-.99 1.467-1.294l6.494-3.35-.1.274a2.618 2.618 0 0 1-1.25 1.366z"/>
</svg>
