<svg xmlns="http://www.w3.org/2000/svg" width="40" height="40" viewBox="0 0 40 40">
    <g fill="#4A4A4A" fill-rule="nonzero">
        <path d="M9.987 19.633a2.012 2.012 0 0 0-.68-.142c-.444 0-.662.236-.767.433-.353.666.076 1.905.372 2.392.148.241.522.519 2.117.519.97 0 1.923-.104 1.963-.109l.42-.045-.232-.366c-.051-.08-1.27-1.97-3.193-2.682zm1.042 2.669c-1.5 0-1.676-.26-1.682-.271-.282-.461-.562-1.463-.356-1.85.039-.072.11-.156.316-.156.137 0 .308.037.508.11 1.266.47 2.225 1.536 2.667 2.103-.368.03-.913.064-1.453.064z"/>
        <path d="M32.902 14.904c-.69-.153-1.857.007-2.116.606-.124.286-.3.432-.433.508-.05-.114-.104-.242-.163-.382-.704-1.66-2.014-4.753-4.301-5.058-1.788-.238-3.364-.27-4.8-.27L20 10.308l-1.089-.002c-1.436 0-3.012.033-4.8.271-2.288.305-3.598 3.397-4.302 5.058l-.162.382a1.036 1.036 0 0 1-.433-.508c-.259-.6-1.427-.76-2.116-.606-.588.13-.925.472-.925.938 0 .515.056 1.038.462 1.385.285.243.708.364 1.295.364.267 0 .57-.028.908-.077-.08.12-.162.24-.25.368-.217.315-.461.67-.768 1.171-.897 1.465-.897 1.868-.897 5.72 0 .954.166 1.68.418 2.235v2.618c0 .588.478 1.067 1.065 1.067h1.887c.587 0 1.065-.479 1.065-1.067v-.832h17.284v.832c0 .588.478 1.067 1.066 1.067h1.886c.588 0 1.066-.479 1.066-1.067v-2.618c.252-.555.417-1.281.417-2.235 0-3.852 0-4.255-.897-5.72-.306-.5-.551-.856-.766-1.17a30.47 30.47 0 0 1-.252-.37c.337.05.642.078.908.078.588 0 1.011-.12 1.295-.364.407-.347.463-.87.463-1.386 0-.465-.338-.807-.926-.937zm-25.94 1.912c-.23-.196-.275-.518-.275-.975 0-.249.282-.363.518-.416.664-.147 1.445.082 1.54.303.186.43.464.652.68.768-.074.15-.146.288-.216.414-1.153.222-1.911.192-2.247-.094zm3.882 12.81a.544.544 0 0 1-.552.534H8.406a.543.543 0 0 1-.552-.534V27.82a2.853 2.853 0 0 0 2.056.973h.933v.833zm21.301 0a.544.544 0 0 1-.551.534h-1.887a.543.543 0 0 1-.551-.534v-.832h.962a2.851 2.851 0 0 0 2.027-.974v1.806zm-.399-10.287c.817 1.334.817 1.644.817 5.434 0 .839-.136 1.475-.344 1.96l-.047.1c-.657 1.386-1.93 1.427-2.083 1.427H9.902c-.143 0-1.417-.04-2.075-1.427l-.048-.1c-.208-.484-.343-1.122-.343-1.96 0-3.79 0-4.1.817-5.434.299-.488.54-.838.752-1.147.392-.571.702-1.023 1.108-1.952l.166-.389c.663-1.565 1.897-4.477 3.897-4.744 1.76-.234 3.315-.266 4.734-.266l1.089.002 1.089-.002c1.419 0 2.974.032 4.735.266 1.999.266 3.233 3.179 3.896 4.744l.166.39c.405.928.716 1.38 1.109 1.951.212.309.452.659.751 1.147zm1.292-2.523c-.335.286-1.093.316-2.247.094a8.364 8.364 0 0 1-.215-.413c.215-.117.493-.34.679-.769.095-.22.877-.45 1.54-.303.236.053.518.168.518.417 0 .456-.046.778-.275.974z"/>
        <path d="M20 25.416c-.244-.016-3.212-.214-5.612-.509l-.309-.038.023.322c.035.5.401 1.477 1.537 1.602 1.21.132 4.31.376 4.342.379H20l.02-.001c.03-.003 3.13-.246 4.341-.379 1.136-.124 1.502-1.102 1.537-1.601l.023-.322-.31.038c-2.4.295-5.367.493-5.611.51zm4.308.846c-1.154.126-4.042.355-4.308.376-.266-.02-3.154-.25-4.308-.376-.625-.068-.889-.48-1-.782 2.434.284 5.262.468 5.292.47H20l.016-.001c.03-.001 2.86-.185 5.295-.47-.109.303-.372.714-1.003.783zM24.21 21.579H15.79c-.48 0-2.05.057-2.05.792 0 .682 1.591 1.323 2.05 1.323h8.421c.459 0 2.05-.641 2.05-1.323 0-.735-1.57-.792-2.05-.792zm0 1.583H15.79c-.388 0-1.425-.537-1.529-.776.142-.14.875-.274 1.529-.274h8.421c.65 0 1.38.132 1.527.272-.12.252-1.142.778-1.527.778zM30.013 19.633c-1.923.711-3.142 2.602-3.193 2.682l-.233.366.42.046c.04.004.993.108 1.963.108 1.596 0 1.97-.277 2.117-.52.297-.485.726-1.725.372-2.39-.104-.198-.322-.433-.766-.433a2.01 2.01 0 0 0-.68.141zm.996.549c.205.386-.074 1.387-.356 1.849-.006.01-.183.271-1.682.271-.54 0-1.085-.035-1.454-.064.441-.566 1.399-1.633 2.669-2.102.2-.074.37-.111.507-.111.206 0 .278.084.316.157zM19.997 17.18h.006c.045 0 4.537-.06 9.202-.429l.35-.027-.13-.338c-.05-.127-1.222-3.122-2.312-4.167-.804-.77-2.662-.877-4.549-.877-.438 0-.881.006-1.32.012a87.99 87.99 0 0 1-2.488 0 93.903 93.903 0 0 0-1.32-.012c-1.887 0-3.744.106-4.549.877-1.09 1.045-2.262 4.04-2.31 4.167l-.132.338.35.027c4.665.369 9.157.429 9.202.43zm-6.761-4.57c.676-.647 2.503-.735 4.2-.735.436 0 .877.006 1.313.012.852.011 1.65.011 2.502 0 .436-.006.877-.012 1.312-.012 1.698 0 3.524.088 4.2.735.804.77 1.708 2.825 2.047 3.637-4.467.339-8.673.398-8.81.4-.137-.002-4.342-.061-8.81-.4.338-.813 1.243-2.867 2.046-3.637z"/>
    </g>
</svg>
