<svg xmlns="http://www.w3.org/2000/svg" width="40" height="40" viewBox="0 0 40 40">
    <g fill="#4A4A4A" fill-rule="nonzero">
        <path d="M19.375 27.313a6.459 6.459 0 0 1-2.283-.427c-.143-.054-.196-.179-.119-.278.077-.1.256-.137.4-.083 1.347.506 2.658.506 4.005 0 .143-.054.322-.017.4.083.076.1.023.224-.12.278a6.45 6.45 0 0 1-2.283.427z"/>
        <path d="M15.576 28.938c-.094 0-.184-.06-.232-.166-.069-.152-.021-.344.107-.426 1.03-.665 1.61-1.711 1.775-3.197.02-.173.15-.295.296-.27.144.022.245.18.226.353-.187 1.677-.876 2.911-2.048 3.668a.232.232 0 0 1-.124.038zM23.987 28.938a.229.229 0 0 1-.125-.038c-1.172-.758-1.86-1.992-2.047-3.669-.02-.172.082-.33.226-.353.144-.023.276.098.295.27.165 1.486.746 2.532 1.776 3.197.128.083.175.274.106.427-.047.106-.138.166-.231.166z"/>
        <path d="M31.563 15.686c0-2.017-1.384-3.657-3.084-3.657l-.038.002C27.5 9.267 25.206 7 19.655 7c-5.424 0-7.646 2.2-8.552 5.03l-.02-.001c-1.7 0-3.083 1.64-3.083 3.657 0 1.082.405 2.098 1.092 2.789-.506.558-.826 1.355-.826 2.242 0 1.559.982 2.846 2.244 3.03v1.094c0 3.393 1.16 7.02 4.422 7.02.412 0 .853-.008 1.313-.124C17.329 32.94 18.683 33 19.78 33h.106c1.242 0 2.44-.146 3.433-1.254.456.115.893.147 1.302.147 1.566 0 2.795-.865 3.556-2.477.759-1.607.872-3.555.872-4.568l.001-1.099c1.262-.182 2.243-1.471 2.243-3.03 0-.887-.319-1.684-.824-2.243.688-.69 1.093-1.707 1.093-2.79zm-.617 0c0 .936-.349 1.807-.938 2.384a2.262 2.262 0 0 0-.948-.38l.003-1.815c-.042-1.067-.156-2.174-.437-3.23 1.292.095 2.32 1.42 2.32 3.041zm-22.33 0c0-1.616 1.023-2.94 2.31-3.04-.26 1.037-.368 2.14-.412 3.24v1.802c-.347.049-.671.182-.96.38-.59-.576-.937-1.446-.937-2.382zm.267 5.031c0-1.217.708-2.227 1.63-2.413l-.003 4.827c-.92-.188-1.627-1.197-1.627-2.414zm18.734 8.431c-.865 1.835-2.325 2.478-4.322 1.912-.121-.034-.25-.055-.327.04-.847 1.044-1.897 1.067-3.083 1.067h-.103c-1.285 0-2.335-.029-3.188-1.076-.06-.074-.149-.083-.241-.083-.029 0-.058.019-.086.027a4.94 4.94 0 0 1-1.336.212c-3.622 0-3.806-5.339-3.806-6.409l.006-8.942c.046-1.172.166-2.32.46-3.37.02-.087.042-.144.06-.2.826-2.708 2.887-4.72 8.003-4.72 5.271 0 7.4 2.094 8.254 4.763 0 .005.016.06.045.138.322 1.071.448 2.23.493 3.38l-.004 2.039c-.002.014-.008.027-.008.042 0 .014.006.027.008.04l-.01 6.833c0 .964-.106 2.806-.815 4.307zm1.434-6.018l.007-4.824c.917.192 1.618 1.198 1.618 2.411 0 1.216-.705 2.225-1.625 2.413z"/>
        <path d="M27.387 18.435c-.079-.345-.345-.586-.712-.644a18.668 18.668 0 0 0-5.821 0c-.31.049-.548.218-.656.451a1.91 1.91 0 0 0-1.684.016.84.84 0 0 0-.649-.467 18.668 18.668 0 0 0-5.82 0c-.404.064-.686.33-.718.678-.103 1.12-.103 1.226 0 2.282l.005.03c.078.356.347.598.72.648.978.13 1.963.196 2.926.196.963 0 1.933-.066 2.881-.196.398-.055.682-.319.723-.673l.015-.123c.101-.862.13-1.106.04-1.79.498-.304.968-.306 1.467-.007-.069.793-.058.988.033 1.915l.005.03c.078.356.347.598.72.648.978.13 1.961.196 2.925.196.963 0 1.932-.066 2.881-.196.398-.055.682-.319.724-.673l.015-.124c.118-1.014.136-1.17-.02-2.197zm-9.396 2.138l-.015.123c-.015.134-.136.17-.207.18a20.997 20.997 0 0 1-5.628 0c-.041-.006-.165-.022-.208-.192-.098-1.003-.097-1.09.002-2.168.012-.124.139-.163.213-.175a18 18 0 0 1 5.614 0c.077.012.182.047.216.19.142.94.13 1.045.013 2.042zm8.81 0l-.015.123c-.016.134-.137.17-.208.18a20.984 20.984 0 0 1-5.628 0c-.041-.006-.164-.022-.207-.192-.099-1.003-.098-1.09.001-2.169.011-.124.139-.162.214-.174a17.996 17.996 0 0 1 5.613 0c.076.012.183.047.216.19.142.94.13 1.045.013 2.042z"/>
    </g>
</svg>
