<svg xmlns="http://www.w3.org/2000/svg" width="40" height="40" viewBox="0 0 40 40">
    <g fill="#4A4A4A" fill-rule="nonzero">
        <path d="M7.18 27.943c-.472 1.253.011 2.71 1.149 3.462a3.164 3.164 0 0 0 2.473.439 3.062 3.062 0 0 0 1.978-1.493c.43-.782.477-1.687.137-2.507l.987-1.797.955 1.818a2.87 2.87 0 0 0 .092 2.508 3.026 3.026 0 0 0 1.787 1.48 3.136 3.136 0 0 0 2.343-.18c1.508-.745 2.11-2.542 1.34-4.006a3.03 3.03 0 0 0-2.04-1.545l-2.219-4.19 4.41-8.034a3.4 3.4 0 0 0 .268-2.68 3.522 3.522 0 0 0-1.765-2.08.332.332 0 0 0-.442.131l-4.654 8.479-4.508-8.575a.332.332 0 0 0-.44-.138c-1.781.881-2.492 3.005-1.583 4.733l4.264 8.11-2.285 4.164a3.016 3.016 0 0 0-2.248 1.9zm10.692-1.396c.047.088.133.15.233.167.756.13 1.388.583 1.735 1.241.605 1.152.131 2.567-1.056 3.155a2.471 2.471 0 0 1-1.844.14 2.385 2.385 0 0 1-1.407-1.164 2.264 2.264 0 0 1-.018-2.09.308.308 0 0 0-.003-.283l-1.234-2.347 1.51-2.752 2.084 3.933zM8.03 13.48a2.79 2.79 0 0 1-.18-2.201 2.876 2.876 0 0 1 1.196-1.52l4.558 8.67-1.518 2.767L8.03 13.48zm1.9 12.994l9.118-16.613a2.87 2.87 0 0 1 1.167 1.541 2.787 2.787 0 0 1-.22 2.198l-7.728 14.081a.309.309 0 0 0-.008.283 2.263 2.263 0 0 1-.056 2.09 2.412 2.412 0 0 1-1.557 1.174 2.463 2.463 0 0 1-1.95-.346c-.893-.592-1.274-1.737-.903-2.722a2.383 2.383 0 0 1 1.899-1.522.326.326 0 0 0 .237-.164z"/>
        <path d="M9.796 30.824a1.5 1.5 0 0 0 1.409-2.648 1.49 1.49 0 0 0-1.143-.11 1.489 1.489 0 0 0-.886.73 1.49 1.49 0 0 0-.11 1.142c.117.383.376.698.73.886zm-.072-1.737a.872.872 0 0 1 .777-.467.879.879 0 0 1 .775 1.294.88.88 0 0 1-1.552-.827zM16.796 30.823a1.49 1.49 0 0 0 1.142.111c.383-.117.697-.376.886-.73a1.49 1.49 0 0 0 .11-1.142 1.489 1.489 0 0 0-.73-.886 1.492 1.492 0 0 0-1.142-.11 1.488 1.488 0 0 0-.886.73 1.489 1.489 0 0 0-.11 1.142c.117.383.376.697.73.885zm-.072-1.736a.872.872 0 0 1 .777-.467.879.879 0 1 1-.777.467zM29.79 21.862c1.219 0 2.21-1.067 2.21-2.38C32 9.477 26.898 7.12 26.68 7.025a.284.284 0 0 0-.267.021c-6.175 3.94-5.41 11.963-5.355 12.459.01 1.302.997 2.358 2.21 2.358h2.21v2.586h-.225c-.16 0-.293.136-.301.308l-.302 6.22c0 1.116.843 2.024 1.879 2.024s1.879-.908 1.879-2.04l-.302-6.204c-.009-.172-.141-.308-.302-.308h-.225v-2.586h2.211zm-6.523-.65c-.886 0-1.606-.776-1.606-1.73 0-.014 0-.028-.002-.043-.01-.079-.916-7.89 4.924-11.745.784.436 4.813 3.101 4.813 11.79 0 .953-.72 1.728-1.606 1.728h-2.211v-2.035c0-.623-.471-1.13-1.05-1.13-.579 0-1.05.507-1.05 1.13v2.035h-2.212zM26.53 32.35c-.703 0-1.276-.616-1.276-1.356l.287-5.896h1.977l.287 5.879c0 .757-.572 1.373-1.275 1.373zm-.447-7.902v-5.27c0-.266.2-.482.447-.482.246 0 .446.216.446.481v5.27h-.893z"/>
    </g>
</svg>
