<svg xmlns="http://www.w3.org/2000/svg" width="15" height="15" viewBox="0 0 15 15">
    <g fill="none" fill-rule="evenodd">
        <path fill="#DC4E41" d="M0 7.5C0 3.358 3.308 0 7.388 0s7.387 3.358 7.387 7.5c0 4.142-3.307 7.5-7.387 7.5S0 11.642 0 7.5z"/>
        <path fill="#FFF" d="M6.036 7.286V8.1h1.331c-.054.35-.402 1.025-1.331 1.025-.802 0-1.456-.672-1.456-1.5s.654-1.5 1.456-1.5c.456 0 .76.197.935.367l.637-.621a2.236 2.236 0 0 0-1.572-.621c-1.298 0-2.347 1.062-2.347 2.375S4.739 10 6.036 10c1.354 0 2.253-.964 2.253-2.32a2.21 2.21 0 0 0-.037-.394H6.036zM11.066 7.286h-.671v-.679h-.67v.679h-.671v.678h.67v.679h.67v-.679h.672"/>
    </g>
</svg>
