<svg xmlns="http://www.w3.org/2000/svg" width="47" height="47" viewBox="0 0 47 47">
    <g fill="none" fill-rule="evenodd" transform="translate(-767 -714)">
        <circle cx="790.5" cy="736.5" r="39.5" stroke="#479365" stroke-dasharray="1,4" stroke-width="2"/>
        <path fill="#4A4A4A" fill-rule="nonzero" d="M811.79 734.894c-1.403-1.86-6.622-8.28-7.81-9.574-.323-.352-.722-.419-1.177-.175a204.728 204.728 0 0 1-4.283 2.225.744.744 0 0 1-.39.07 692.135 692.135 0 0 1-3.745-.49c-1.125-.148-2.25-.298-3.375-.442-.374-.048-.782-.04-1.08.068a.476.476 0 0 0-.058.026c-2.046 1.078-5.962 3.295-7.907 4.474-.446.271-.732.666-.805 1.112-.07.433.068.878.389 1.253a4.954 4.954 0 0 0 3.768 1.724c.636 0 1.275-.117 1.898-.347 1.062-.393 2.084-.906 3.072-1.403.324-.163.649-.326.975-.485.175-.085.214-.095.352-.019 1.452.804 2.906 1.603 4.36 2.401a922.482 922.482 0 0 1 7.293 4.034.386.386 0 0 0 .044.022 4.88 4.88 0 0 0 1.948.38c.666 0 1.128-.116 1.148-.12 2.45-.629 4.216-1.81 5.398-3.61.167-.253.346-.645-.015-1.124zm-.766.634c-1.051 1.6-2.638 2.653-4.852 3.221-.004.001-.373.091-.913.091-.57 0-1.092-.098-1.551-.293a908.366 908.366 0 0 0-7.278-4.026c-1.454-.799-2.908-1.597-4.359-2.4-.463-.257-.939-.142-1.224-.004-.33.161-.657.326-.985.49-.965.485-1.963.987-2.975 1.362a4.524 4.524 0 0 1-1.57.288 3.965 3.965 0 0 1-3.056-1.4c-.149-.172-.212-.354-.184-.526.03-.181.164-.353.378-.483 1.922-1.166 5.782-3.351 7.824-4.43.146-.044.396-.037.61-.01 1.124.145 2.248.294 3.372.443 1.25.165 2.5.331 3.75.49a1.71 1.71 0 0 0 .937-.165 208.778 208.778 0 0 0 4.301-2.235l.037-.018.003.003c1.178 1.283 6.36 7.659 7.754 9.507.01.012.016.023.021.028l-.04.067zm-4.95 4.686a.447.447 0 0 0-.043.64c1.18 1.323 1.037 2.868.37 3.812-.4.57-1.129 1.065-1.974.781l-10.958-7.171a.472.472 0 0 0-.645.124.447.447 0 0 0 .127.63l10.978 7.184c.556.506.349 1.496-.136 2.178-.45.636-1.23 1.162-2.066.744l-10.986-7.19a.47.47 0 0 0-.644.125.448.448 0 0 0 .127.63l10.842 7.095c.084.77-.502 1.312-1.038 1.635-1.208.728-2.771.79-3.309.36-.008-.007-.017-.01-.025-.016-.004-.003-.007-.008-.011-.01l-5.203-3.4a.471.471 0 0 0-.644.124.448.448 0 0 0 .128.63l4.943 3.23c-.192.661-.74 1.266-1.438 1.557-.6.248-1.55.373-2.697-.449l-2.61-1.82a.472.472 0 0 0-.648.106.448.448 0 0 0 .108.634l2.605 1.816c.747.536 1.54.807 2.318.807.437 0 .87-.085 1.287-.26.873-.363 1.579-1.098 1.896-1.93 1.091.369 2.703.048 3.787-.605.885-.534 1.4-1.251 1.484-2.035 1.033.155 1.988-.458 2.558-1.26.514-.725.78-1.678.553-2.478.782-.063 1.528-.501 2.056-1.25.87-1.233 1.073-3.234-.436-4.924a.47.47 0 0 0-.655-.044zm-31.197 2.126a.448.448 0 0 0-.115-.632c-1.27-.866-2.185-1.98-2.511-3.056-1.375-4.53 2.151-10.744 2.95-11.705 2.194.117 10.894.88 10.952.885a.462.462 0 0 0 .516-.396.456.456 0 0 0-.406-.505c-.057-.007-9.326-.821-11.212-.9-.282-.004-.46.21-.578.358-.778.975-4.659 7.427-3.113 12.521.385 1.269 1.431 2.56 2.87 3.542a.471.471 0 0 0 .647-.112zm14.525 5.38c-.551-.868-1.568-1.252-2.788-1.044.143-.886-.19-1.76-.518-2.198-.525-.705-1.34-1.013-2.324-.872.076-.948-.32-1.724-1.166-2.27-.864-.557-1.801-.606-2.694-.144-.391-.76-1.122-1.24-1.955-1.24-.841 0-1.612.48-2.17 1.349-.328.51-1.316 2.785-1.428 3.043a.447.447 0 0 0 .153.542l10.618 7.634c.29.202.587.305.885.305.306 0 .61-.107.907-.319 1.019-.728 2.205-1.835 2.243-1.87.665-.581.785-2.053.237-2.916zm-.867 2.248c-.012.01-1.192 1.111-2.162 1.805-.265.19-.444.19-.699.012l-10.316-7.417c.428-.977 1.02-2.281 1.214-2.585.382-.595.874-.922 1.384-.922.592 0 1.103.452 1.27 1.125.037.15.148.27.296.322a.473.473 0 0 0 .437-.069c.733-.55 1.43-.599 2.135-.144.71.458.914 1.09.643 1.99a.447.447 0 0 0 .124.456.472.472 0 0 0 .47.103c.91-.3 1.598-.188 2.014.37.24.32.612 1.28.164 2.05a.445.445 0 0 0 .03.494c.11.145.296.213.476.173l.185-.041c.209-.047.385-.086.56-.117.853-.15 1.497.066 1.852.626.323.507.235 1.496-.077 1.769z" opacity=".745"/>
    </g>
</svg>
