<svg xmlns="http://www.w3.org/2000/svg" width="47" height="47" viewBox="0 0 47 47">
    <g fill="none" fill-rule="evenodd" transform="translate(-569 -714)">
        <circle cx="592.5" cy="736.5" r="39.5" stroke="#479365" stroke-dasharray="1,4" stroke-width="2"/>
        <path fill="#4A4A4A" fill-rule="nonzero" d="M601.327 720.143c-4.76 0-8.637 3.822-8.673 8.555l-5.804-1.793a.424.424 0 0 0-.199-.013.424.424 0 0 0-.04.013l-9.307 2.874a.422.422 0 0 0-.304.409v24.121a.421.421 0 0 0 .542.396l9.189-2.834 9.188 2.834c.078.022.16.022.238 0l9.308-2.874a.422.422 0 0 0 .304-.395v-14.144c.399-.472.791-.96 1.164-1.45 1.684-2.212 3.024-4.59 3.067-7.065a.42.42 0 0 0 0-.013c0-4.765-3.89-8.62-8.673-8.62zm0 .844c4.326 0 7.827 3.47 7.827 7.777-.038 2.176-1.258 4.414-2.896 6.564-1.536 2.017-3.392 3.937-4.931 5.695-1.54-1.76-3.41-3.676-4.945-5.695-1.634-2.15-2.844-4.388-2.882-6.564 0-4.308 3.501-7.777 7.827-7.777zm0 3.796c-2.215 0-4.02 1.8-4.02 4.007 0 2.208 1.805 4.007 4.02 4.007s4.02-1.799 4.02-4.007c0-2.208-1.805-4.007-4.02-4.007zm0 .844a3.162 3.162 0 0 1 3.173 3.163 3.162 3.162 0 0 1-3.173 3.164 3.162 3.162 0 0 1-3.173-3.164 3.162 3.162 0 0 1 3.173-3.163zm-15.02 2.254v23.238l-8.46 2.61v-23.238l8.46-2.61zm.847 0l5.566 1.713c.275 2.14 1.453 4.195 2.909 6.13a.42.42 0 0 0-.014.105v17.9l-8.461-2.61v-23.238zm9.308 8.924c1.513 1.85 3.204 3.565 4.534 5.114a.424.424 0 0 0 .648 0c.973-1.132 2.131-2.364 3.28-3.665v12.865l-8.462 2.61v-16.924z" opacity=".745"/>
    </g>
</svg>
