<svg xmlns="http://www.w3.org/2000/svg" width="47" height="47" viewBox="0 0 47 47">
    <g fill="none" fill-rule="evenodd" transform="translate(-381 -714)">
        <circle cx="404.5" cy="736.5" r="39.5" stroke="#479365" stroke-dasharray="1,4" stroke-width="2"/>
        <g fill="#4A4A4A" fill-rule="nonzero" opacity=".745" transform="translate(391 717)">
            <path d="M27.01 19.8c.464-1.511.99-3.223.99-4.985 0-2.838-2.353-5.147-5.245-5.147-.35 0-.69.037-1.021.102-.178-.39-.372-.768-.583-1.132v-.087c0-2.162-1.726-3.936-3.898-4.065C17.032 1.976 14.88 0 12.266 0S7.5 1.976 7.279 4.486c-2.171.129-3.898 1.903-3.898 4.065v.087c-1.148 1.986-1.82 4.374-1.82 6.943 0 5.4 2.963 9.734 7.286 11.237v1.273C5.47 28.79 0 31.251 0 35.345V40h.999v-4.655c0-2.08 1.853-3.713 3.982-4.82v8.53h14.57v-8.53c2.128 1.107 3.982 2.74 3.982 4.82V40h1v-4.655c0-4.093-5.47-6.555-8.848-7.253v-1.273c1.966-.684 3.653-1.952 4.905-3.642.461.485.933.897 1.387 1.234 2.256 1.675 4.525 2.09 4.768 2.09a.51.51 0 0 0 .465-.296.486.486 0 0 0-.095-.532c-1.446-1.508-.854-3.434-.105-5.873zm-5.3-6.834c-1.218-.17-4.085-.883-5.23-3.878-.006-.017-.017-.03-.025-.046h3.775a12.561 12.561 0 0 1 1.48 3.924zM7.532 5.459c.053 0 .106.004.159.008l.587.039-.015-.54-.003-.053C8.26 2.745 10.056.98 12.265.98c2.21 0 4.008 1.764 4.007 3.93a1.16 1.16 0 0 0-.003.07v.524l.574-.038c.052-.004.104-.008.157-.008 1.568 0 2.872 1.13 3.112 2.603H4.42c.24-1.474 1.543-2.603 3.111-2.603zm-3.23 3.583H15.55c-2.898 3.694-10.524 3.305-12.544 3.13.298-1.127.737-2.18 1.296-3.13zM8.686 29.14c.061-.015.122-.03.182-.043.136 1.69.998 2.77 2.438 3.092l-2.62 1.86v-4.91zm1.16-.529V27.11a10.5 10.5 0 0 0 4.84 0v1.502c0 1.792-.815 2.701-2.42 2.701-1.606 0-2.42-.909-2.42-2.7zm6.999.806c.551.172 1.129.384 1.706.633v8.023H5.98V30.05c.576-.25 1.155-.46 1.707-.633v6.552l4.578-3.251 4.58 3.25v-6.551zm-1-.277v4.91l-2.62-1.861c1.44-.32 2.302-1.403 2.439-3.092l.182.043zm-3.58-2.73c-5.533 0-9.705-4.656-9.705-10.83 0-.838.084-1.652.23-2.44 1.872.183 9.524.676 13.087-2.966 1.603 3.091 4.877 3.684 5.991 3.798.063.526.104 1.062.104 1.609 0 6.173-4.173 10.829-9.707 10.829zM25.6 25.202c-1.152-.394-2.947-1.23-4.442-2.87 1.153-1.889 1.814-4.2 1.814-6.751 0-1.732-.307-3.381-.857-4.881a4.15 4.15 0 0 1 .641-.052c2.34 0 4.246 1.87 4.246 4.167 0 1.617-.482 3.185-.948 4.702-.628 2.044-1.228 3.997-.454 5.685z"/>
            <path d="M12.5 23.187c-.872 0-1.58-.532-1.58-1.187H10c0 1.103 1.121 2 2.5 2 1.378 0 2.5-.897 2.5-2h-.92c0 .655-.709 1.187-1.58 1.187z"/>
            <circle cx="8" cy="16" r="1"/>
            <circle cx="17" cy="16" r="1"/>
            <path d="M13 19c.552 0 1-.183 1-.408v-1.184c0-.225-.448-.408-1-.408s-1 .183-1 .408v1.184c0 .226.448.408 1 .408z"/>
        </g>
    </g>
</svg>
