<svg xmlns="http://www.w3.org/2000/svg" width="47" height="47" viewBox="0 0 47 47">
    <g fill="none" fill-rule="evenodd" transform="translate(-170 -714)">
        <circle cx="193.5" cy="736.5" r="39.5" stroke="#479365" stroke-dasharray="1,4" stroke-width="2"/>
        <g stroke="#4A4A4A" opacity=".745">
            <path d="M193.5 755s-13.5-9.054-13.5-21.457c0-7.456 6.075-13.543 13.5-13.543s13.5 6.087 13.5 13.543C207 745.946 193.5 755 193.5 755z"/>
            <path stroke-linejoin="round" d="M203.25 733.696c0 2.663-1.05 5.174-2.775 6.924-1.8 1.826-4.275 2.967-6.975 2.967-2.7 0-5.175-1.141-6.975-2.967-1.725-1.75-2.775-4.261-2.775-6.924 0-2.663 1.05-5.174 2.775-6.924 1.8-1.826 4.275-2.968 6.975-2.968 2.7 0 5.175 1.142 6.975 2.968 1.725 1.75 2.775 4.26 2.775 6.924z"/>
            <path stroke-linejoin="round" d="M193.5 738.337c0-1.598.825-3.044 2.1-3.88.975-.685 1.65-1.827 1.65-3.12 0-2.359-2.1-4.185-4.5-3.728a3.805 3.805 0 0 0-2.925 2.967"/>
            <path stroke-linejoin="round" stroke-width="2" d="M193.5 739.783v1.521"/>
        </g>
    </g>
</svg>
