<svg xmlns="http://www.w3.org/2000/svg" width="40" height="40" viewBox="0 0 40 40">
    <g fill="none" fill-rule="evenodd" stroke="white" stroke-linecap="round" stroke-linejoin="round" stroke-width=".7">
        <path d="M7 32c0-2.344.993-4.465 2.597-6h3.134c.001 3.314 2.807 6 6.269 6H7z"/>
        <path d="M13 32c-1.334-1.105-2-2.553-2-4 0 1.447.666 2.895 2 4zM12 23.5a1.5 1.5 0 1 0-3 0V25h3v-1.5z"/>
        <path d="M11 22.494c.397 0 .751.197 1 .506l-.32-16h-1.36L10 23c.249-.309.603-.506 1-.506zM32 18.66h-5.765c-1.82 1.787-4.77 1.787-6.588 0H18c0-1.34 1.106-2.427 2.47-2.427l.824.002c0-1.786 1.475-3.235 3.293-3.235 1.82 0 3.295 1.449 3.295 3.235l1.647-.001c1.364 0 2.471 1.086 2.471 2.425z"/>
        <path d="M32 19.001L28.89 32h-7.78L18 19.001 19.647 19a4.52 4.52 0 0 0 6.588.001L32 19v.001z"/>
        <path d="M32 20v-2.5c0-4.143-3.134-7.5-7-7.5s-7 3.357-7 7.5V20v-2.5c0-4.143 3.134-7.5 7-7.5s7 3.357 7 7.5V20z"/>
    </g>
</svg>
