<svg xmlns="http://www.w3.org/2000/svg" xmlns:xlink="http://www.w3.org/1999/xlink" width="144" height="79" viewBox="0 0 144 79">
    <defs>
        <path id="a" d="M0 .621h54.761V62H0z"/>
        <path id="c" d="M.127.431H21.88v29H.127z"/>
    </defs>
    <g fill="none" fill-rule="evenodd" opacity=".303">
        <g transform="translate(0 18)">
            <mask id="b" fill="#fff">
                <use xlink:href="#a"/>
            </mask>
            <path fill="#9B9B9B" d="M48.744 23.084c-.025.174-.545.643-1.89.742v-1.773c.169.034.337.07.509.103 1.106.33 1.4.794 1.381.928zm-5.011-20c0-.355.3-.656.657-.656.362 0 .656.295.656.656v39.988h-1.313V3.084zm-9.588 37.914l-5.093-23.143 1.015-3.317 5.094 26.46h-1.016zM17.46 16.623l.12.467-3.64 23.908h-1.038l4.558-24.375zm6.793-3.418c.609 0 1.18-.054 1.713-.142l-.7 2.076h-3.614l-.457-2.37a11.3 11.3 0 0 0 3.057.436zM3.064 28.435c-.724 0-1.205-.363-1.252-.948-.08-.981 1.032-2.17 3.312-2.543 4.098-.672 8.167-5.786 10.675-9.59l-.497 2.957c-1.543 3.504-5.927 7.492-10.707 9.728-.563.263-1.078.396-1.53.396zm16.188 29.722L17.79 42.805h3.923l-.555 15.352h-1.906zm-3.483-17.16l3.626-23.817a.896.896 0 0 0-.018-.362l-1.133-4.39.148-.793c.274.145.548.281.821.406l.805 4.172a.903.903 0 0 0 .888.733h5.009a.903.903 0 0 0 .856-.615l1.301-3.853c.308-.122.593-.252.852-.383l-1.67 5.458a.906.906 0 0 0-.018.459l5.058 22.986H15.769zm11.447 17.16l-1.462-15.352h3.923l-.555 15.352h-1.906zm5.398-39.956l-.495-2.573-.221-1.148c1.892 1.982 5.046 4.445 10.026 6.213v2.285a22.775 22.775 0 0 1-.929-.34c-6.867-2.702-8.185-4.169-8.381-4.437zm8.83 29.572v-1.086a1.81 1.81 0 0 1 1.81-1.808h2.272a1.81 1.81 0 0 1 1.808 1.808v1.086a1.81 1.81 0 0 1-1.808 1.808h-2.273a1.81 1.81 0 0 1-1.808-1.808zm8.931 12.31c-.774 0-1.42-.191-1.672-.278l-1.173-.999a.903.903 0 0 0-1.374.245l-.643 1.142h-4.806l-1.133-1.645a.904.904 0 0 0-1.453-.049l-.57.717-1.617-.269c.812-5.435 2.94-7.781 4.605-8.794a3.606 3.606 0 0 0 2.714 1.235h2.273a3.611 3.611 0 0 0 2.792-1.321 6.694 6.694 0 0 1 1.816 1.32c2.453 2.505 2.773 6.538 2.813 7.74-.695.634-1.559.957-2.571.957zM49.08 48.427a3.6 3.6 0 0 0 .063-.653v-1.086c0-1.524-.95-2.828-2.288-3.359V25.64c2.478-.136 3.53-1.252 3.68-2.3.141-.996-.495-2.288-2.706-2.93a.748.748 0 0 0-.084-.02c-.302-.058-.598-.12-.89-.183V3.084A2.467 2.467 0 0 0 44.39.621a2.467 2.467 0 0 0-2.466 2.463v15.673c-7.693-2.943-10.432-7.608-10.799-8.293l-.082-.425a.901.901 0 0 0-.845-.73.913.913 0 0 0-.66.24h-.001l-.02.02-.008.006c-.258.222-2.22 1.822-5.256 1.822-1.293 0-2.614-.286-3.949-.851a12.413 12.413 0 0 1-.438-.195l-.056-.026a13.947 13.947 0 0 1-.499-.25c-.024-.011-.047-.025-.07-.038a14.687 14.687 0 0 1-.413-.227l-.127-.074a17.598 17.598 0 0 1-.477-.29.897.897 0 0 0-.846-.065.903.903 0 0 0-.528.663l-.018.1a.884.884 0 0 0-.146.199C14.963 13.65 9.473 22.4 4.831 23.16c-3.516.576-4.964 2.723-4.822 4.473.126 1.537 1.382 2.61 3.055 2.61.72 0 1.493-.191 2.297-.567 3.068-1.436 6.583-3.882 9.087-6.787l-3.524 18.846a.903.903 0 0 0 .89 1.07h4.159l1.556 16.342a.905.905 0 0 0 .9.818h3.601a.904.904 0 0 0 .904-.872l.59-16.288h.413l1.556 16.342a.905.905 0 0 0 .9.818h3.602a.904.904 0 0 0 .903-.872l.59-16.288h4.768a.905.905 0 0 0 .888-1.075L33.135 20.91c1.612 1.013 4.042 2.169 7.198 3.41.544.215 1.075.402 1.591.565v18.444a3.618 3.618 0 0 0-2.287 3.36v1.085c0 .263.03.518.083.764-2.186 1.27-4.894 4.214-5.696 11.052a.904.904 0 0 0 .75.997l3.006.5a.902.902 0 0 0 .856-.329l.141-.178.71 1.03a.903.903 0 0 0 .745.39h5.81a.905.905 0 0 0 .788-.46l.364-.646.458.39c.07.06.15.109.234.145.045.019 1.11.463 2.49.463 1.637 0 3.07-.617 4.145-1.785a.902.902 0 0 0 .239-.59c.006-.238.1-5.878-3.326-9.385a8.52 8.52 0 0 0-2.354-1.705z" mask="url(#b)"/>
        </g>
        <g transform="translate(98)">
            <mask id="d" fill="#fff">
                <use xlink:href="#c"/>
            </mask>
            <path fill="#9B9B9B" d="M6.465 10.814c.794-.195 2.35-.49 4.499-.49 1.694 0 3.452.18 5.234.537v6.667h-9.81l.077-6.714zM2.5 4.824c.985-.822 1.954-1.237 2.877-1.237.939 0 1.51.431 1.525.442a.924.924 0 0 0 1.229-.057c.456-.45 2.025-1.736 3.205-1.736 1.05 0 2.224 1.592 2.552 2.149.217.371.67.54 1.082.404.012-.004 1.213-.394 2.498-.394 1.952 0 2.326.89 2.448 1.183.716 1.706-2.054 3.196-2.91 3.609a28.854 28.854 0 0 0-6.042-.668c-2.701 0-4.553.426-5.321.643-1.312-.687-3.53-2.164-3.68-3.34-.017-.137-.063-.5.537-.999zm8.99 22.803c-3.296 0-5.978-2.645-5.978-5.897 0-.853.187-1.664.519-2.396h10.917c.332.732.519 1.543.519 2.396 0 3.252-2.682 5.897-5.977 5.897zM21.607 4.888c-.44-1.048-1.515-2.297-4.139-2.297-.928 0-1.807.16-2.386.298-.65-.9-2.022-2.458-3.746-2.458-1.586 0-3.16 1.114-3.967 1.787a4.694 4.694 0 0 0-1.992-.436c-1.367 0-2.732.559-4.057 1.661C.197 4.378.063 5.375.148 6.047c.273 2.151 3.228 3.953 4.49 4.63l-.087 7.531a7.56 7.56 0 0 0-.869 3.522c0 4.247 3.503 7.701 7.808 7.701 4.304 0 7.807-3.454 7.807-7.7 0-1.55-.468-2.992-1.27-4.201v-6.818c2.08-1.008 4.71-3.13 3.58-5.824z" mask="url(#d)"/>
        </g>
        <path fill="#9B9B9B" d="M110.83 45.224l-1.568-1.695-.73-.79-.532-.574 15.305-13.011c-.837 6.881-9.923 14.153-12.474 16.07zm-1.397-13.9c2.302 0 4.094-.704 5.237-1.333l.338 3.848-3.447 2.93a.837.837 0 0 0-.315-.06c-.452 0-.818.351-.818.786 0 .073.013.142.033.21l-2.765 2.35a.817.817 0 0 0-.742-.462c-.452 0-.818.352-.818.787 0 .284.158.53.392.668l-.442.376a131.012 131.012 0 0 0-3.297 2.773l.645-11.048.192-3.28c1.942.966 3.889 1.455 5.807 1.455zm7.297 1.05l-.078-.898c.156.178.322.36.495.545l-.417.354zm-15.692 10.164c-.554-.865-.955-1.894-1.039-2.993-.114-1.513.388-2.949 1.461-4.233l-.422 7.226zm4.05 3.687c-.201-.29-.473-.589-.843-.885.754-.659 1.565-1.348 2.363-2.01l.698.754-2.219 2.14zm11.514 5.758h-14.268l.049-.835a1.18 1.18 0 0 0 .607-.348c.058-.064.282-.287.62-.619a2.508 2.508 0 0 0 1.931-1.878c.96-.929 2.046-1.977 2.993-2.89l1.487 1.606a.937.937 0 0 0 .689.297.942.942 0 0 0 .54-.169c.22-.153 2.2-1.548 4.601-3.71l.751 8.546zM95.911 38.41c.586-3.846 3.879-6.806 5.85-8.264l-.145 2.506c-3.098 2.462-3.597 5.161-3.456 7.02.232 3.074 2.317 5.546 4.154 6.542 1.031.559 1.561 1.207 1.42 1.734-.083.31-.365.487-.542.5-.632-.104-3.397-1.688-5.4-4.257-1.533-1.967-2.166-3.912-1.881-5.781zm11.17 36.814h-1.945l-2.124-21.468h4.874l-.806 21.468zm8.122 0h-1.944l-2.124-21.468h4.875l-.807 21.468zm10.444-37.252l-.128-.001a10.171 10.171 0 0 1-3.882-.807c.323-.442.634-.893.927-1.349a8.324 8.324 0 0 0 2.774.486c2.874 0 5.143-1.444 6.966-2.603.931-.593 1.895-1.206 2.408-1.206a.32.32 0 0 1 .238.09c.441.38.548.75.355 1.235-.747 1.882-5.221 4.155-9.658 4.155zm10.441-7.207c-.125.187-.204.188-.23.188-.228 0-.706-.315-.97-.828-.152-.297-.153-.516-.105-.577.695-.878.809-2.484.768-3.772.17-.04.325-.075.456-.096.347-.054.623-.081.844-.081.434 0 .55.08.977.379l.085.059c-.288 1.433-.982 3.466-1.825 4.728zm6.004-5.564c-.137.481-.397.481-.537.481-.128 0-.278-.027-.446-.078-1.22-.38-1.762-.759-2.198-1.063-.504-.353-1.027-.718-2.06-.718a7.31 7.31 0 0 0-1.144.106 13.34 13.34 0 0 0-1.23.284c-.715.188-1.526.4-2.144.4-.173 0-.48-.018-.604-.143-.117-.118-.174-.405-.156-.788.082-1.77 2.407-3.908 5.168-3.908a5.17 5.17 0 0 1 2.596.697c2.273 1.298 3.072 3.621 2.755 4.73zm-1.813-6.257a7.05 7.05 0 0 0-3.538-.945c-3.532 0-6.874 2.67-7.01 5.604-.043.902.18 1.608.664 2.094.457.46 1.108.692 1.938.692.448 0 .915-.067 1.376-.16.002.964-.102 1.875-.393 2.243-.507.64-.538 1.553-.08 2.441.024.047.05.094.077.142-.637.278-1.304.702-2.026 1.162-1.617 1.028-3.63 2.308-5.95 2.308a6.293 6.293 0 0 1-1.851-.283c1.232-2.318 1.946-4.762 1.664-7.162a.894.894 0 0 0-.586-.729.95.95 0 0 0-.94.164l-5.09 4.326a20.602 20.602 0 0 1-2.286-2.91c-.005-.01-.011-.016-.017-.025a1.083 1.083 0 0 0-.095-.12 1.018 1.018 0 0 0-.066-.063c-.013-.012-.026-.024-.04-.034a.965.965 0 0 0-.08-.054c-.013-.008-.025-.017-.038-.024a.931.931 0 0 0-.12-.055l-.026-.01a.978.978 0 0 0-.117-.033l-.057-.008a.75.75 0 0 0-.084-.01h-.062a1.201 1.201 0 0 0-.142.012 1.001 1.001 0 0 0-.096.02c-.011.003-.023.004-.034.008a.93.93 0 0 0-.143.057c-.009.004-.017.01-.026.015a.92.92 0 0 0-.096.058c-.014.01-.027.022-.04.033-.017.012-.032.023-.047.036-.02.018-2.041 1.813-5.389 1.813-2 0-4.07-.644-6.15-1.916l-.008-.004-.005-.004c-.011-.006-.023-.01-.035-.017a.72.72 0 0 0-.07-.035l-.044-.017a.925.925 0 0 0-.07-.024l-.048-.01a.902.902 0 0 0-.07-.015l-.051-.006-.069-.005a1.484 1.484 0 0 0-.174.013.777.777 0 0 0-.182.047l-.053.022-.036.015c-.008.003-.015.009-.023.013l-.022.01c-.296.167-7.265 4.158-8.237 10.538-.504 3.301 1.309 6.131 2.918 7.925.64.713 1.35 1.37 2.058 1.944-.147.274-.148.423-.148.536 0 .816.785 1.64 1.647 2.144l-.123 2.118a.87.87 0 0 0 .25.66.93.93 0 0 0 .47.255l2.221 22.462c.045.455.442.803.918.803h3.673c.496 0 .904-.378.921-.855l.717-19.095 1.895 19.147c.045.455.442.803.917.803h3.673c.497 0 .904-.378.922-.855l.842-22.425a.926.926 0 0 0 .427-.25.867.867 0 0 0 .24-.675l-.963-10.968a41.907 41.907 0 0 0 2.937-3.196 12.153 12.153 0 0 0 5.002 1.117h.147c4.943 0 10.261-2.475 11.381-5.296.291-.733.285-1.447-.002-2.092.231-.162.44-.373.614-.634.687-1.029 1.524-2.982 1.954-4.77.276.112.589.226.948.337.35.11.692.165 1.013.165 1.131 0 1.997-.667 2.316-1.786.551-1.933-.665-5.054-3.592-6.727zM17.758 19.5a5.749 5.749 0 0 1 5.742-5.742 5.749 5.749 0 0 1 5.743 5.742 5.749 5.749 0 0 1-5.743 5.743 5.749 5.749 0 0 1-5.742-5.743M16 19.5c0 4.136 3.365 7.5 7.5 7.5 4.136 0 7.5-3.364 7.5-7.5 0-4.135-3.364-7.5-7.5-7.5-4.135 0-7.5 3.365-7.5 7.5"/>
    </g>
</svg>
