<svg xmlns="http://www.w3.org/2000/svg" xmlns:xlink="http://www.w3.org/1999/xlink" width="143" height="67" viewBox="0 0 143 67">
    <defs>
        <path id="a" d="M0 .602h45.719v65.99H0z"/>
        <path id="c" d="M.513.312H16.45v16.527H.513z"/>
        <path id="e" d="M.248.32h56.458V59H.248z"/>
    </defs>
    <g fill="none" fill-rule="evenodd" opacity=".303">
        <g transform="translate(0 1)">
            <mask id="b" fill="#fff">
                <use xlink:href="#a"/>
            </mask>
            <path fill="#9B9B9B" d="M34.375 16.269l1.33 23.81H20.967l1.99-23.684a10.601 10.601 0 0 0 5.416 1.477c1.98 0 3.994-.538 6.002-1.603zm2.14 7.651c.296.57.588 1.253.842 2.067.235.75.259 1.33.067 1.592-.14.194-.453.258-.688.278l-.22-3.937zm-14.11 40.95l-.83-23.07h5.154l-2.182 23.07h-2.143zm8.286 0l-.829-23.07h5.155l-2.183 23.07h-2.143zm6.287-32.677l-.146-2.617c.87-.061 1.548-.396 1.972-.978.54-.74.603-1.793.186-3.127-.789-2.527-1.923-4.01-2.653-4.761l-.201-3.601c2.308 2.49 6.445 7.17 7.72 10.023.207.462.203.88-.013 1.315-.879 1.764-4.643 3.13-6.865 3.746zM14.76 19.937a6.267 6.267 0 0 0 1.992.342c1.898 0 3.323-.949 4.332-2.033l-.258 3.08c-.624.551-2.537 2.053-4.862 2.053-1.271 0-2.493-.46-3.632-1.367-2.245-1.788-3.144-3.9-3.476-5.597h2.517c.488 1.334 1.476 2.667 3.309 3.492a.68.68 0 0 0 .078.03zM1.712 13.058h16.634v1.635H1.712v-1.635zm9.023-10.734v1.23a11.169 11.169 0 0 0-1.414-.002V2.324h1.414zm-.707 2.928c1.966 0 3.516.573 4.608 1.703 1.33 1.376 1.721 3.295 1.835 4.381H3.555c.076-1.054.4-2.93 1.688-4.311 1.096-1.177 2.706-1.773 4.785-1.773zm1.242 18.11c1.448 1.155 3.027 1.74 4.693 1.74 1.9 0 3.54-.763 4.67-1.488l-1.45 17.253a.861.861 0 0 0 .68.915l.86 23.98c.017.463.395.83.856.83h3.746c.441 0 .81-.338.852-.78l2.055-21.722.779 21.672c.016.463.394.83.855.83h3.747c.44 0 .81-.338.851-.78l2.273-24.023a.857.857 0 0 0 .723-.984l-.384-6.855c1.945-.506 6.958-2.044 8.296-4.73.446-.896.462-1.863.045-2.795-1.918-4.288-9.342-11.888-9.657-12.21l-.016-.013a1.126 1.126 0 0 0-.093-.08.997.997 0 0 0-.063-.04c-.013-.008-.026-.017-.04-.024l-.007-.004c-.023-.012-.047-.022-.072-.032-.01-.004-.02-.01-.03-.013a.93.93 0 0 0-.112-.032l-.042-.006a.766.766 0 0 0-.074-.01H35.094l-.055.007a1.155 1.155 0 0 0-.117.023.805.805 0 0 0-.064.022l-.032.01-.017.009c-.022.01-.043.02-.065.033-.014.007-.029.014-.043.023l-.01.005c-2.135 1.365-4.261 2.057-6.318 2.057-3.416 0-5.537-1.94-5.555-1.958a.868.868 0 0 0-.106-.084l-.035-.02a.9.9 0 0 0-.09-.05l-.042-.017a.777.777 0 0 0-.104-.034l-.024-.008-.008-.001a.85.85 0 0 0-.14-.018h-.033a.905.905 0 0 0-.108.006l-.046.008a.83.83 0 0 0-.093.022c-.014.005-.03.008-.044.014l-.02.006a.918.918 0 0 0-.086.04l-.02.01a.813.813 0 0 0-.114.076l-.03.027a.822.822 0 0 0-.16.184c-.008.012-.017.024-.024.037a.902.902 0 0 0-.06.126l-.002.005c-.016.04-1.52 4.036-4.677 4.036-.45 0-.924-.08-1.41-.24-1.063-.488-1.71-1.184-2.098-1.902h5.958a.858.858 0 0 0 .856-.86v-3.358a.858.858 0 0 0-.856-.86h-1.01c-.112-1.298-.561-3.746-2.318-5.571-.922-.958-2.07-1.61-3.427-1.952V1.462a.858.858 0 0 0-.856-.86H8.465a.858.858 0 0 0-.855.86v2.336c-1.456.347-2.668 1.03-3.615 2.049-1.69 1.814-2.076 4.2-2.155 5.49H.856a.858.858 0 0 0-.856.86v3.357c0 .475.383.861.856.861H7.12c.337 2.073 1.364 4.728 4.15 6.947z" mask="url(#b)"/>
        </g>
        <g transform="translate(20)">
            <mask id="d" fill="#fff">
                <use xlink:href="#c"/>
            </mask>
            <path fill="#9B9B9B" d="M8.482 2.092c3.447 0 6.251 2.908 6.251 6.483 0 3.575-2.804 6.484-6.251 6.484-3.448 0-6.252-2.909-6.252-6.484s2.804-6.483 6.252-6.483m0 14.747c4.393 0 7.968-3.707 7.968-8.264 0-4.556-3.575-8.264-7.968-8.264C4.088.311.512 4.02.512 8.575c0 4.557 3.576 8.264 7.97 8.264" mask="url(#d)"/>
        </g>
        <path fill="#9B9B9B" d="M100 7.64a5.366 5.366 0 0 1 5.36 5.36 5.366 5.366 0 0 1-5.36 5.36A5.366 5.366 0 0 1 94.64 13 5.366 5.366 0 0 1 100 7.64M100 20c3.86 0 7-3.14 7-7s-3.14-7-7-7-7 3.14-7 7 3.14 7 7 7"/>
        <g transform="translate(86 10)">
            <mask id="f" fill="#fff">
                <use xlink:href="#e"/>
            </mask>
            <path fill="#9B9B9B" d="M34.839 4.808a2.13 2.13 0 0 1-.365.028c-.933 0-2.044-.422-2.378-.903-.101-.146-.113-.266-.043-.443.03-.072.062-.155.338-.155.864 0 2.12.852 2.448 1.473zm1.561-2.25c.111-.497.346-.52.487-.534a.304.304 0 0 1 .04-.002c.179 0 .297.29.35.463.267.846.051 2.08-.315 2.579-.329-.425-.762-1.608-.562-2.506zm-3.547 4.47c-.024-.094-.01-.133.035-.19.107-.136.345-.276.671-.382.315.053.626.082.915.082a3.32 3.32 0 0 0 1.094-.165c.13.033.239.072.327.114-.357.361-1.372.933-2.32.933-.617 0-.685-.256-.722-.393zm-23.929 7.67l.974 3.124-4.88 21.797h-.975l4.881-24.922zm-1.502-1.34l-.615 3.14c-.666.716-1.821 2.12-2.676 4.026-.899 2.003-.025 3.83.92 4.937l-.852 4.35c-1.052-2.163-2.126-5.58-2.217-8.591-.072-2.42 3.057-5.751 5.44-7.861zm-1.706 7.853c.09-.2.185-.392.282-.58l-.435 2.221a2.487 2.487 0 0 1 .153-1.641zm11.274-5.948h-3.463l-.671-1.955c.51.083 1.058.133 1.641.133.97 0 1.95-.14 2.93-.409l-.437 2.23zm32.995 42.035h4.987v-5.68h-4.987v5.68zm-26.02-7.382h-5.853V41.58h36.86v8.336H23.965zm-5.853 7.382h4.987v-5.68h-4.987v5.68zm11.14-30.196a61.41 61.41 0 0 0-4.421.389l-.938-4.929c1.518 1.73 3.42 3.287 5.36 4.54zm-8.244-10.44l2.109 11.084c-.19.033-.377.067-.56.102l-1.664-10.747.115-.44zm33.964 15.27v7.946h-36.86v-7.946c0-1.621 5.007-3.258 16.195-3.258a73.448 73.448 0 0 1 2.264.028c.009 0 .872-.028 2.207-.028 11.187 0 16.194 1.637 16.194 3.258zM36.27 23.656h13.893v4.124a33.354 33.354 0 0 0-.813-.137c-3.58-.555-7.725-.671-10.57-.671-.394 0-.745.002-1.046.006.07-1.143-.586-2.451-2.12-3.322h.656zm1.164-7.81v-.79h2.649v.79c-.274.383-.707 1.122-.742 2.011-.029.759.45 2.785.787 4.097h-2.738c.336-1.312.816-3.338.786-4.097-.034-.889-.467-1.628-.742-2.012zm-4.604 8.652c2.185.352 3.251 1.472 3.175 2.396-.003.032-.012.062-.018.093a91.399 91.399 0 0 0-3.525.001c-4.233-2.16-8.001-5.648-9.386-8.738l-.476-2.785c2.404 3.584 6.304 8.4 10.23 9.033zM6.791 39.62l4.848-21.65a.839.839 0 0 0-.018-.431l-1.6-5.142c.248.124.52.246.816.36l1.247 3.63c.118.346.449.58.82.58h4.8c.416 0 .773-.29.852-.69l.771-3.93c.262-.119.525-.246.787-.383l.142.746-1.086 4.135a.83.83 0 0 0-.018.34l1.712 11.052c-3.012.82-4.486 2.039-4.486 3.696v7.687H6.791zm3.04 16.163l-.532-14.46h3.76l-1.402 14.46H9.831zm15 2.367v-6.53h23.422v6.53c0 .47.387.851.866.851h6.72a.859.859 0 0 0 .867-.851V31.932c0-1.715-1.58-2.962-4.81-3.782v-5.346c0-.47-.388-.85-.867-.85h-9.114c-.405-1.55-.862-3.526-.843-4.032.02-.534.39-1.068.527-1.225a.846.846 0 0 0 .217-.563v-1.93a.859.859 0 0 0-.867-.851h-1.388c.104-1.602.09-4.832-1.385-7.07.919-1.012 1.178-2.968.758-4.302C38.6.926 37.87.32 36.928.32c-.07 0-.141.004-.214.011-1.104.11-1.837.862-2.037 2.028-.741-.446-1.575-.725-2.286-.725-.926 0-1.637.45-1.95 1.236a2.09 2.09 0 0 0 .223 2.023c.227.327.544.606.913.837-.02.023-.042.045-.06.07a1.853 1.853 0 0 0-.34 1.659c.277 1.042 1.173 1.665 2.397 1.665 1.214 0 2.64-.6 3.462-1.369.221.446.386.931.508 1.43.045.188.086.377.12.566.25 1.386.216 2.782.158 3.603h-1.256a.859.859 0 0 0-.866.851v1.93c0 .207.077.407.217.563.005.006.502.588.526 1.225.02.506-.438 2.482-.843 4.032h-4.659c-3.864-2.348-7.804-8.59-9.193-11.208a.813.813 0 0 0-.138-.187l-.018-.095a.855.855 0 0 0-.506-.625.882.882 0 0 0-.81.062 14.151 14.151 0 0 1-.981.56l-.06.032c-.16.083-.32.162-.482.237l-.047.02c-.143.067-.285.13-.428.188-1.277.531-2.543.8-3.78.8-3.113 0-5.047-1.723-5.063-1.738a.877.877 0 0 0-.86-.19.858.858 0 0 0-.585.65l-.046.235C6.403 11.886.122 17.008.25 21.27c.127 4.254 2.038 9.155 3.45 11.087L2.144 40.31a.838.838 0 0 0 .183.702c.165.196.41.31.668.31h4.57l.565 15.342c.017.458.4.82.866.82h3.45c.447 0 .82-.333.863-.77L14.8 41.322h.397l.564 15.342c.014.373.271.678.617.781v.704c0 .47.388.851.867.851h6.72a.859.859 0 0 0 .867-.851z" mask="url(#f)"/>
        </g>
    </g>
</svg>
