<svg xmlns="http://www.w3.org/2000/svg" width="40" height="40" viewBox="0 0 40 40">
    <path fill="#4A4A4A" fill-rule="nonzero" d="M14.624 8.116c-.22.04-.236.151-.321.3.075.693.121 1.5.09 2.13-.017.308-.067.58-.1.651-.268.607-.626 1.21-.804 1.78-.09.504-.062.997 0 1.471.202.6.504 1.17.804 1.8a.334.334 0 0 0 .431.16.326.326 0 0 0 .151-.43c-.247-.532-.584-1.147-.753-1.64-.076-.426-.05-.826 0-1.24.172-.536.489-1.078.753-1.63.117-.25.142-.542.16-.881.01-.827.002-1.531-.1-2.251-.086-.148-.203-.17-.31-.22zm4.5 0c-.22.04-.236.151-.321.3.074.693.121 1.5.09 2.13-.017.308-.067.58-.1.651-.268.607-.626 1.21-.804 1.78-.09.504-.063.997 0 1.471.202.6.504 1.17.804 1.8a.334.334 0 0 0 .431.16.326.326 0 0 0 .151-.43c-.247-.532-.584-1.147-.753-1.64-.077-.426-.05-.826 0-1.24.171-.536.489-1.078.753-1.63.117-.25.142-.542.16-.881.01-.827.002-1.531-.1-2.251-.086-.148-.203-.17-.311-.22zm4.5 0c-.22.04-.236.151-.321.3.074.693.12 1.5.09 2.13-.017.308-.067.58-.1.651-.268.607-.626 1.21-.804 1.78-.09.504-.063.997 0 1.471.202.6.504 1.17.804 1.8a.334.334 0 0 0 .431.16.326.326 0 0 0 .151-.43c-.247-.532-.584-1.147-.753-1.64-.077-.426-.05-.826 0-1.24.171-.536.489-1.078.753-1.63.117-.25.142-.542.16-.881.01-.827.002-1.531-.1-2.251-.086-.148-.203-.17-.311-.22zM7.392 17.719a.33.33 0 0 0-.231.32c0 6.361 5.184 11.525 11.571 11.525 3.114 0 5.935-1.236 8.016-3.231 1.47-.083 3.132-.744 4.49-1.611 1.074-.763 2.573-1.841 2.601-3.171-.055-2.193-1.876-2.775-3.545-2.861.012-.216.01-.431.01-.65a.333.333 0 0 0-.322-.32H7.392zm22.239.64a10.843 10.843 0 0 1-3.174 7.353c-.002.004-.009-.003-.01 0v.01a10.865 10.865 0 0 1-7.715 3.202c-5.907 0-10.767-4.806-10.767-10.568 7.38 0 14.942.004 21.666.004zm.602.961c1.645.016 2.95.74 2.963 2.23-.273 1.215-1.377 2.04-2.31 2.642-1.045.667-2.303 1.205-3.435 1.42a11.46 11.46 0 0 0 2.782-6.292zM8.065 31.154a.334.334 0 0 0-.291.35.335.335 0 0 0 .351.29H29.34a.333.333 0 0 0 .326-.32.334.334 0 0 0-.326-.32H8.065z"/>
</svg>
