<svg xmlns="http://www.w3.org/2000/svg" width="40" height="40" viewBox="0 0 40 40">
    <path fill="#4A4A4A" fill-rule="nonzero" d="M30.494 26.652c-.337-.844-.772-1.572-1.308-2.18-1.179-1.17-2.443-2.087-3.758-2.727-.26-.127-.524-.24-.795-.346a3.64 3.64 0 0 0-.193-.43c-.137-.254-.25-.444-.366-.576a8.378 8.378 0 0 0 2.077-2.225l.03-.063c.377-1.09.425-2.273.48-3.643.044-1.08.066-1.621-.074-2.267a6.933 6.933 0 0 0-.954-2.25c-1.337-1.7-3.271-2.796-5.173-2.932A5.588 5.588 0 0 0 20.137 7a5.912 5.912 0 0 0-.311.013c-1.902.135-3.836 1.23-5.19 2.955a6.913 6.913 0 0 0-.938 2.227c-.14.646-.118 1.188-.074 2.267.056 1.37.104 2.554.481 3.643l.03.063a8.387 8.387 0 0 0 2.076 2.225c-.114.132-.228.321-.365.576a3.634 3.634 0 0 0-.193.43c-.272.107-.536.22-.795.346-1.315.64-2.58 1.558-3.773 2.743-.521.592-.957 1.32-1.293 2.164-.998 2.497-.818 5.264-.694 6.338l.032.275h22.026l.032-.275c.123-1.074.303-3.841-.694-6.338zm-9.027-4.16a6.48 6.48 0 0 1-.92.164 6.913 6.913 0 0 1-.352.023l-.038.003-.067-.003a7.185 7.185 0 0 1-.35-.023 6.5 6.5 0 0 1-.922-.165 25.57 25.57 0 0 0-.566-.979c.52.194 1.047.326 1.566.375.105.01.208.015.34.02.102-.005.205-.01.31-.02a6.21 6.21 0 0 0 1.566-.376c-.143.23-.322.54-.567.98zm2.868.54a7.108 7.108 0 0 1-.138-.413l-.027-.09c-.079-.276-.178-.618-.438-.77a.469.469 0 0 0-.24-.068c-.276 0-.514.25-.632.374l-.151.152-.43.128c.43-.752.57-.927.76-1.113.12-.119.254-.233.395-.339l.027-.023a.453.453 0 0 1 .119-.085c.041.046.127.166.29.468.284.528.412 1.194.465 1.78zm-9.633-5.155c-.338-.997-.384-2.13-.437-3.439-.042-1.028-.063-1.545.061-2.116.07-.319.291-1.155.838-2.004 1.21-1.538 3.013-2.568 4.709-2.688.093-.007.185-.01.264-.012.09.002.182.005.275.012 1.696.12 3.5 1.15 4.693 2.665.564.874.785 1.709.854 2.027.124.571.103 1.088.061 2.116-.053 1.31-.099 2.441-.437 3.44-1.174 1.848-3.25 3.21-5.179 3.394-.093.008-.185.013-.247.018a5.33 5.33 0 0 1-.276-.018c-1.928-.183-4.005-1.546-5.18-3.395zm1.713 3.376c.163-.302.249-.421.29-.468a.458.458 0 0 1 .119.085l.027.023c.142.106.275.22.395.34.189.184.328.358.754 1.101l-.435-.13-.16-.16c-.13-.139-.479-.504-.851-.286-.261.152-.36.495-.439.77l-.026.091a6.939 6.939 0 0 1-.14.413c.055-.585.182-1.25.466-1.779zm14.164 11.394H9.706c-.11-1.173-.187-3.591.684-5.773.31-.778.71-1.446 1.17-1.97 1.129-1.12 2.336-1.998 3.587-2.607.093-.046.189-.087.284-.13-.226 1.082-.148 2.153-.134 2.312l.085.983.505-.843c.132 1.129.694 2.01.985 2.398l.205.274.265-.222a33.991 33.991 0 0 0 2.493-2.307c.1.02.202.031.308.031.115 0 .225-.015.332-.037.234.24.471.477.71.709a34.12 34.12 0 0 0 1.788 1.604l.266.222.205-.274c.287-.383.84-1.247.98-2.356l.479.8.085-.982c.014-.159.093-1.23-.134-2.313.095.043.19.085.285.131 1.25.61 2.458 1.487 3.573 2.591.474.54.873 1.208 1.184 1.986.87 2.182.793 4.6.683 5.773z"/>
</svg>
