<?xml version="1.0" encoding="UTF-8"?>
<svg width="45px" height="45px" viewBox="0 0 45 45" version="1.1" xmlns="http://www.w3.org/2000/svg" xmlns:xlink="http://www.w3.org/1999/xlink">
    <!-- Generator: Sketch 48.2 (47327) - http://www.bohemiancoding.com/sketch -->
    <title>noun_757382_cc</title>
    <desc>Created with Sketch.</desc>
    <defs></defs>
    <g id="About" stroke="none" stroke-width="1" fill="none" fill-rule="evenodd" transform="translate(-490.000000, -985.000000)">
        <g id="noun_757382_cc" transform="translate(490.000000, 985.000000)" fill="#000000" fill-rule="nonzero">
            <path d="M22.5,45 C10.0588235,45 0,34.875 0,22.5 C0,10.0588235 10.125,0 22.5,0 C34.9411765,0 45,10.125 45,22.5 C45,34.9411765 34.9411765,45 22.5,45 Z M22.5,1.98529412 C11.1838235,1.98529412 1.98529412,11.1838235 1.98529412,22.5 C1.98529412,33.8161765 11.1838235,43.0147059 22.5,43.0147059 C33.8161765,43.0147059 43.0147059,33.8161765 43.0147059,22.5 C43.0147059,11.1838235 33.8161765,1.98529412 22.5,1.98529412 Z" id="Shape"></path>
            <circle id="Oval" cx="15" cy="16" r="2"></circle>
            <circle id="Oval" cx="30" cy="16" r="2"></circle>
            <path d="M23,36 C15.8,36 10,31.0508475 10,25.0169492 C10,24.4745763 10.4666667,24 11,24 C11.5333333,24 12,24.4745763 12,25.0169492 C12,29.9661017 16.9333333,33.9661017 23,33.9661017 C29.0666667,33.9661017 34,29.9661017 34,25.0169492 C34,24.4745763 34.4666667,24 35,24 C35.5333333,24 36,24.4745763 36,25.0169492 C36,31.0508475 30.2,36 23,36 Z" id="Shape"></path>
        </g>
    </g>
</svg>