<svg xmlns="http://www.w3.org/2000/svg" width="15" height="15" viewBox="0 0 15 15">
    <g fill="none" fill-rule="evenodd">
        <path fill="#55ACEE" d="M0 7.5a7.5 7.5 0 1 1 15 0 7.5 7.5 0 0 1-15 0z"/>
        <path fill="#FFF" d="M7.275 6.096l.016.26-.262-.032c-.955-.122-1.79-.535-2.497-1.229l-.347-.344-.089.254c-.189.567-.068 1.165.326 1.568.21.222.162.254-.2.122-.126-.043-.236-.075-.246-.059-.037.037.089.52.188.71.137.265.415.524.72.678l.256.122-.304.005c-.294 0-.304.005-.273.117.105.344.52.71.981.868l.325.111-.283.17c-.42.243-.913.381-1.406.392-.236.005-.43.026-.43.042 0 .053.64.35 1.012.466 1.118.344 2.445.196 3.442-.392.708-.418 1.416-1.25 1.747-2.055.178-.429.357-1.213.357-1.589 0-.243.015-.275.31-.566.172-.17.335-.355.366-.408.053-.1.048-.1-.22-.01-.446.158-.509.137-.289-.101.163-.17.357-.477.357-.567 0-.016-.078.01-.168.058a2.927 2.927 0 0 1-.461.18l-.284.09-.257-.174a2.135 2.135 0 0 0-.446-.233 1.792 1.792 0 0 0-.918.02c-.655.24-1.07.853-1.023 1.526z"/>
    </g>
</svg>
