<svg xmlns="http://www.w3.org/2000/svg" width="54" height="54" viewBox="0 0 54 54">
    <g fill="none" fill-rule="evenodd">
        <path stroke="#EDEDED" d="M-63.5-27.5h180v137h-180z"/>
        <g transform="translate(16 5)">
            <path d="M2.887 43.043L16.261 43l-.02-6.651-13.371.046.017 6.65zm2.276-4.466c.588 0 1.065.508 1.065 1.134 0 .626-.477 1.134-1.065 1.134S4.1 40.337 4.1 39.71c0-.301.112-.59.313-.803.2-.213.471-.332.754-.331h-.003zM17.613 21.053a.216.216 0 0 0-.076-.01c-.181.013-.36.063-.523.147-1.401.668-2.066 2.362-1.518 3.87.499 1.474.872 1.678.912 1.696.526.234 2.561-1.118 3.427-1.697.477-.32.883-.59 1.208-.77a2.753 2.753 0 0 1-.29-.324 13.779 13.779 0 0 0-3.14-2.912z"/>
            <path d="M23.974 25.437c-.517.258-1.015.55-1.492.874-2.16 1.369-3.905 2.38-5.047 1.892-.667-.283-1.218-1.096-1.741-2.559a4.528 4.528 0 0 1 2.418-5.728 2.255 2.255 0 0 1 1.6-.182c1.32.435 3.637 2.968 4.09 3.471.052.064.83.985 1.646.536.347-.706-1.977-4.99-3.785-6.48-1.407-1.155-6.662.268-8.14.878a5.7 5.7 0 0 0-.698 2.29.654.654 0 0 1-.742.56.651.651 0 0 1-.565-.737 5.827 5.827 0 0 1 1.133-3.071l1.802-14.525a.673.673 0 0 0-.21-.487.97.97 0 0 0-.67-.256c-1.265.035-1.415 1.426-1.43 1.71l-1.13 6.388-.007.054-.005.015-1.946 10.977a.66.66 0 0 1-1.3-.226L9.7 9.843c.115-.807.44-3.127-.122-3.77-.082-.095-.191-.207-.658-.217a1.327 1.327 0 0 0-1.28 1.116l-1.14 7.242-.958 6.102a.66.66 0 0 1-1.304-.203l.957-6.07c.218-1.846-.102-2.8-.477-3.075a.43.43 0 0 0-.467-.033c-.38.2-.628.582-.657 1.009-.134 1.256-.849 5.39-1.421 8.637a17.03 17.03 0 0 0 1.108 9.658c.826 1.938 1.751 3.858 2.394 5.152l10.122-.031a7.548 7.548 0 0 1 3.32-3.732c2.945-1.576 6.6-5.044 6.708-5.868a.35.35 0 0 0-.177-.309 2.072 2.072 0 0 0-1.675-.014z"/>
            <path fill="#93C64A" fill-rule="nonzero" d="M25.44 23.18c.175-1.906-2.48-6.155-4.12-7.54-1.81-1.535-6.227-.337-8.22.318l1.665-13.79A2.021 2.021 0 0 0 14.204.65a2.075 2.075 0 0 0-1.61-.647c-1.485.084-2.642 1.345-2.626 2.862l-.296 1.704a2.009 2.009 0 0 0-1.557-.624h-.012C6.85 3.96 5.79 4.897 5.596 6.16l-.525 3.426a1.992 1.992 0 0 0-.289-.279 1.667 1.667 0 0 0-1.736-.179 2.546 2.546 0 0 0-1.4 2.067c-.099.95-.587 3.982-1.374 8.539A18.76 18.76 0 0 0 1.434 30.11a100.194 100.194 0 0 0 2.083 4.642H2.43a.599.599 0 0 0-.592.604l.023 8.039c0 .333.266.604.593.604l15.533-.044c.327 0 .593-.271.593-.605l-.03-8.04a.61.61 0 0 0-.174-.428.587.587 0 0 0-.419-.177l-1.744.005a5.994 5.994 0 0 1 2.413-2.566c2.415-1.328 7.224-5.296 7.2-7.019a1.67 1.67 0 0 0-.593-1.279c.12-.203.191-.431.208-.667zm-8.049 19.57l-14.35.045-.02-6.83 14.347-.046.023 6.83zm.627-11.755a7.476 7.476 0 0 0-3.23 3.727l-9.846.032a100.763 100.763 0 0 1-2.328-5.146 17.428 17.428 0 0 1-1.079-9.646c.56-3.243 1.256-7.371 1.383-8.626.028-.425.27-.807.64-1.007a.41.41 0 0 1 .454.033c.364.274.675 1.227.463 3.072l-.93 6.062a.655.655 0 0 0 .634.756.647.647 0 0 0 .634-.554l.934-6.09 1.11-7.235a1.303 1.303 0 0 1 1.245-1.114c.453.01.56.121.64.216.545.638.23 2.959.119 3.765L6.97 20.21a.655.655 0 0 0 .633.769.647.647 0 0 0 .632-.542l1.89-10.966.005-.015.007-.054 1.102-6.379c.018-.278.163-1.667 1.393-1.707a.93.93 0 0 1 .652.256.68.68 0 0 1 .204.486l-1.755 14.506a5.915 5.915 0 0 0-1.1 3.068.663.663 0 0 0 .126.484.639.639 0 0 0 1.146-.308 5.804 5.804 0 0 1 .679-2.286c1.438-.61 6.55-2.032 7.918-.876 1.758 1.487 4.018 5.764 3.682 6.47-.79.448-1.55-.472-1.602-.534-.44-.504-2.698-3.034-3.978-3.467a2.142 2.142 0 0 0-1.556.181c-2.14.976-3.17 3.48-2.351 5.72.506 1.461 1.045 2.273 1.694 2.557 1.11.487 2.807-.523 4.909-1.89.464-.324.949-.615 1.451-.873a1.968 1.968 0 0 1 1.624.016.352.352 0 0 1 .172.308c-.11.828-3.67 4.284-6.53 5.86zm3.897-7.229c-.352.19-.79.477-1.308.813-.939.61-3.144 2.036-3.714 1.79-.044-.02-.449-.234-.987-1.789-.592-1.589.128-3.373 1.644-4.078a1.49 1.49 0 0 1 .567-.154.24.24 0 0 1 .082.01 14.779 14.779 0 0 1 3.402 3.069c.096.121.201.235.314.34z"/>
            <circle cx="5.739" cy="39.217" r="1" fill="#93C64A" fill-rule="nonzero"/>
        </g>
    </g>
</svg>
