<svg xmlns="http://www.w3.org/2000/svg" width="54" height="54" viewBox="0 0 54 54">
    <g fill="none" fill-rule="evenodd">
        <path stroke="#EDEDED" d="M-63.5-27.5h180v137h-180z"/>
        <g fill="#93C64A" fill-rule="nonzero">
            <path d="M27 48.544l-7.875-6.45C14.562 38.38 12 32.842 12 26.848V13.232l.563-.065C16.436 12.84 26.374 10.82 26.374 6h1.25c0 4.821 9.938 6.84 13.813 7.167l.562.065v13.616c0 5.994-2.563 11.532-7.125 15.246L27 48.544zm-13.75-34.14v12.444c0 5.604 2.438 10.75 6.625 14.204L27 46.85l7.125-5.798c4.188-3.454 6.625-8.6 6.625-14.204V14.405c-2.375-.261-11.313-1.63-13.75-5.994-2.438 4.365-11.375 5.733-13.75 5.994z"/>
            <path d="M27 45.221l-6.313-5.147C16.75 36.817 14.5 32.061 14.5 26.848v-11.27l.5-.066a34.088 34.088 0 0 0 5.313-1.238c2.687-.847 4.812-1.954 6.25-3.322L27 10.56l.438.39c1.437 1.304 3.5 2.476 6.25 3.323 2 .652 4 1.043 5.312 1.238l.5.065v11.271c0 5.147-2.25 9.969-6.188 13.161L27 45.221zM15.75 16.685v10.163c0 4.757 2.063 9.187 5.688 12.119L27 43.527l5.563-4.56c3.624-2.867 5.687-7.297 5.687-12.119V16.685c-1.313-.26-3.125-.587-5-1.173-2.625-.847-4.75-1.89-6.25-3.192-1.563 1.303-3.625 2.345-6.25 3.192a69.652 69.652 0 0 1-5 1.173z"/>
            <path d="M25.75 31.67l-4.188-4.365.875-.913 3.313 3.453 8-8.339.875.912z"/>
        </g>
    </g>
</svg>
