<svg xmlns="http://www.w3.org/2000/svg" width="54" height="54" viewBox="0 0 54 54">
    <g fill="none" fill-rule="evenodd">
        <path stroke="#EDEDED" d="M-65.5-27.5h180v137h-180z"/>
        <g fill="#93C64A" fill-rule="nonzero">
            <path d="M17.029 11.84c.222 0 .55.058.856.336 1.107 1.01 2.22 2.058 3.295 3.072l1.3 1.225 2.362 2.216c1.451 1.363 2.902 2.725 4.355 4.085.784.733 1.591 1.264 2.47 1.622.56.23 1.12.346 1.662.346.953 0 1.854-.364 2.606-1.052.493-.451.954-1 1.332-1.585.363-.56.706-1.134 1.038-1.688.37-.619.72-1.203 1.097-1.776.336-.51.87-.803 1.466-.803.418 0 .823.145 1.169.418.7.552.84 1.517.342 2.345-.842 1.399-1.707 2.817-2.544 4.189l-.986 1.617-.384.633c-.44.726-.896 1.476-1.353 2.202-.394.626-.423 1.285-.085 1.958.322.642.64 1.304.948 1.946.216.451.433.903.654 1.352 1.483 3.026.374 6.29-2.637 7.763a346.842 346.842 0 0 1-7.43 3.526c-.76.35-1.566.527-2.395.527a5.76 5.76 0 0 1-4.538-2.236c1.373-.943 2.047-2.074 2.138-3.595a4.753 4.753 0 0 0 2.919-1.454c.834-.865 1.292-1.894 1.358-3.025.284-.038.58-.093.876-.186 1.629-.513 2.841-1.792 3.242-3.422.403-1.634-.08-3.326-1.292-4.526-.877-.87-1.789-1.72-2.67-2.544-.342-.32-.684-.638-1.025-.96l-6.825-6.428-2.94-2.769a49.079 49.079 0 0 0-.408-.378c-.296-.274-.575-.533-.84-.8-.503-.508-.52-1.266-.041-1.764.24-.25.563-.387.908-.387zm0-1.265c-.671 0-1.337.265-1.832.78-.948.985-.931 2.526.054 3.521.413.417.852.808 1.28 1.21l9.765 9.197c1.227 1.157 2.474 2.295 3.671 3.481a3.493 3.493 0 0 1-1.433 5.848c-.577.182-1.214.178-1.848.262.248 1.205-.012 2.336-.923 3.282-.757.784-1.679 1.105-2.702 1.105-.204 0-.412-.013-.624-.037.295 2.19-.368 3.321-2.567 4.41.104.195.2.395.314.584a6.995 6.995 0 0 0 8.916 2.716c2.5-1.15 4.985-2.33 7.457-3.539 3.644-1.783 5.001-5.816 3.22-9.45-.54-1.1-1.057-2.212-1.607-3.308-.135-.27-.135-.471.025-.726.594-.944 1.168-1.9 1.747-2.852 1.18-1.936 2.365-3.869 3.533-5.811.826-1.373.546-3.044-.643-3.982a3.168 3.168 0 0 0-1.964-.694c-.982 0-1.94.472-2.535 1.377-.748 1.136-1.401 2.332-2.14 3.473a6.944 6.944 0 0 1-1.125 1.34c-.529.483-1.114.715-1.738.715a3.12 3.12 0 0 1-1.177-.25c-.787-.321-1.466-.799-2.079-1.372-2.24-2.098-4.477-4.2-6.716-6.3-1.534-1.44-3.054-2.893-4.609-4.31a2.543 2.543 0 0 0-1.72-.67z"/>
            <path d="M15.992 27.519c.067.005.343.071.601.311l1.225 1.14c2.052 1.908 4.174 3.882 6.245 5.836.49.463.508 1.242.04 1.736a1.284 1.284 0 0 1-.934.416c-.314 0-.61-.12-.854-.346a929.302 929.302 0 0 1-4.567-4.259l-1.95-1.824c-.12-.113-.242-.223-.363-.334-.187-.17-.364-.332-.532-.495a1.288 1.288 0 0 1-.305-1.435c.264-.638.978-.743 1.394-.746zm.019-1.265c-1.285.001-2.211.608-2.594 1.53-.404.973-.18 2.062.588 2.815.297.291.612.565.917.85 2.173 2.03 4.337 4.07 6.522 6.088.498.46 1.113.686 1.725.686.678 0 1.353-.276 1.863-.814a2.48 2.48 0 0 0-.089-3.518c-2.48-2.34-4.98-4.66-7.476-6.982-.478-.445-1.061-.648-1.456-.655zM20.016 23.075c.236 0 .592.067.944.388.63.576 1.265 1.177 1.88 1.757l.885.836 1.211 1.137c.99.93 2.011 1.892 3.028 2.83.504.467.716.784.713 1.527-.013.199-.177.584-.717.828a1.482 1.482 0 0 1-.602.146c-.25 0-.478-.094-.698-.287-.815-.715-1.625-1.483-2.408-2.226-.324-.307-.648-.614-.974-.918l-.677-.635a1196.593 1196.593 0 0 1-3.381-3.171c-.398-.375-.52-.738-.41-1.214.17-.737.756-.998 1.206-.998zm0-1.265c-1.112 0-2.16.728-2.45 1.98-.219.942.073 1.752.773 2.413 1.35 1.273 2.707 2.54 4.062 3.81 1.134 1.06 2.245 2.148 3.413 3.171.468.41.994.605 1.544.605.37 0 .75-.089 1.13-.26.972-.438 1.44-1.243 1.465-1.946.012-1.261-.485-1.9-1.119-2.484-1.42-1.312-2.822-2.64-4.231-3.962-.926-.868-1.841-1.748-2.778-2.604a2.669 2.669 0 0 0-1.81-.723zM12.75 32.99c.101 0 .41 0 .91.47a4575.34 4575.34 0 0 0 4.67 4.39l.378.356c.136.128.273.254.41.38.206.19.412.379.612.573.572.558.617 1.338.106 1.855a1.215 1.215 0 0 1-.88.376c-.344 0-.689-.145-.97-.408-.758-.708-1.514-1.418-2.27-2.13a752.78 752.78 0 0 0-3.662-3.424c-.661-.613-.741-.999-.656-1.423.128-.636.618-1.015 1.322-1.015h.03zm0-1.264H12.707c-1.315 0-2.317.812-2.562 2.033-.219 1.084.268 1.882 1.036 2.593 1.985 1.84 3.95 3.702 5.927 5.55a2.705 2.705 0 0 0 1.847.753c.652 0 1.294-.252 1.792-.756 1.006-1.018.956-2.59-.124-3.641-.339-.33-.693-.645-1.037-.97-1.683-1.58-3.367-3.161-5.048-4.744-.523-.493-1.115-.818-1.79-.818zM38.892 9.999c-.237 0-.49.083-.73.254-.911.647-1.813 1.307-2.717 1.965-.137.1-.282.2-.391.326-.284.328-.357.702-.164 1.102.18.374.5.55 1.017.597.152-.071.41-.15.619-.298.96-.677 1.91-1.366 2.855-2.064.548-.406.653-.987.294-1.476a.956.956 0 0 0-.783-.406zM24.178 7.2c-.2 0-.402.059-.577.176-.443.296-.614.885-.295 1.345a93.065 93.065 0 0 0 2.344 3.195c.168.22.455.327.741.327.142 0 .283-.026.41-.077.365-.146.622-.531.622-1.047-.037-.091-.08-.303-.195-.465A146.5 146.5 0 0 0 24.98 7.6a1 1 0 0 0-.802-.399zM34.696 6.443c-.384 0-.731.224-.93.642-.33.697-.63 1.407-.944 2.112-.184.412-.389.818-.549 1.24-.287.756.156 1.437.916 1.44.39-.003.721-.145.886-.504.542-1.18 1.087-2.36 1.584-3.558.239-.576-.068-1.131-.628-1.316a1.063 1.063 0 0 0-.335-.056zM29.3 5.421a.882.882 0 0 0-.81.487 1.419 1.419 0 0 0-.133.754c.103 1.181.23 2.36.368 3.538.069.586.498.97 1.018.97.034 0 .068-.002.101-.005.577-.055.926-.496.91-1.224-.034-.322-.073-.716-.117-1.109-.098-.86-.185-1.72-.301-2.578-.063-.465-.379-.735-.831-.814a1.188 1.188 0 0 0-.205-.019z"/>
        </g>
    </g>
</svg>
