<svg xmlns="http://www.w3.org/2000/svg" width="54" height="54" viewBox="0 0 54 54">
    <g fill="none" fill-rule="evenodd">
        <path stroke="#EDEDED" d="M-63.5-27.5h180v137h-180z"/>
        <g fill="#93C64A" fill-rule="nonzero">
            <path d="M44.872 35.55a.621.621 0 0 0-.495-.433l-4.755-.684-2.12-4.252c-.208-.42-.88-.42-1.088 0l-2.12 4.252-4.755.684a.604.604 0 0 0-.495.432.644.644 0 0 0 .165.646l3.428 3.305-.806 4.66a.63.63 0 0 0 .238.614c.11.082.238.126.367.126.091 0 .189-.025.275-.07l4.253-2.213 4.253 2.214a.597.597 0 0 0 .642-.057.65.65 0 0 0 .238-.614l-.806-4.66 3.428-3.305a.667.667 0 0 0 .153-.646zm-4.67 3.273a.626.626 0 0 0-.183.564l.654 3.757-3.44-1.788a.616.616 0 0 0-.275-.069.616.616 0 0 0-.275.07l-3.44 1.787.647-3.757a.626.626 0 0 0-.183-.564l-2.738-2.64 3.801-.546a.604.604 0 0 0 .458-.332l1.724-3.45 1.723 3.45a.604.604 0 0 0 .458.332l3.801.546-2.731 2.64zM16.174 19.288h7.944a.621.621 0 0 0 .611-.627.621.621 0 0 0-.61-.627h-7.945a.621.621 0 0 0-.611.627c0 .345.275.627.61.627zM16.174 36.847a.621.621 0 0 0-.611.628c0 .344.275.627.61.627h8.66a.621.621 0 0 0 .611-.627.621.621 0 0 0-.61-.628h-8.66zM33.896 21.797H16.174a.621.621 0 0 0-.611.627c0 .345.275.627.61.627h17.723a.621.621 0 0 0 .611-.627.617.617 0 0 0-.61-.627zM29.111 29.95a.621.621 0 0 0-.611-.628H16.174a.621.621 0 0 0-.611.627c0 .345.275.627.61.627H28.5a.621.621 0 0 0 .611-.627zM27.278 33.712a.621.621 0 0 0-.611-.627H16.174a.621.621 0 0 0-.611.627c0 .345.275.627.61.627h10.494a.621.621 0 0 0 .61-.627zM16.174 26.814h8.555a.621.621 0 0 0 .612-.628.621.621 0 0 0-.612-.627h-8.555a.621.621 0 0 0-.611.627c0 .345.275.628.61.628zM29.618 26.814h4.278a.621.621 0 0 0 .611-.628.621.621 0 0 0-.61-.627h-4.279a.621.621 0 0 0-.61.627c0 .345.274.628.61.628zM27.608 26.632a.64.64 0 0 0 .177-.446.64.64 0 0 0-.177-.445c-.226-.232-.642-.232-.862 0a.646.646 0 0 0-.183.445c0 .163.067.327.183.446.11.119.269.182.428.182a.607.607 0 0 0 .434-.182z"/>
            <path d="M28.5 43.119H13.222V13.017H17.5v1.254c0 .345.275.627.611.627h14.056a.621.621 0 0 0 .61-.627v-1.254h4.279v12.542c0 .345.275.627.61.627a.621.621 0 0 0 .612-.627V12.39a.621.621 0 0 0-.611-.626h-4.89v-1.255a.621.621 0 0 0-.61-.627H28.5V8.627A.621.621 0 0 0 27.889 8h-5.5a.621.621 0 0 0-.611.627v1.254H18.11a.621.621 0 0 0-.611.627v1.255h-4.889a.621.621 0 0 0-.611.627v31.356c0 .345.275.627.611.627H28.5a.621.621 0 0 0 .611-.627.621.621 0 0 0-.611-.627zM23 9.254h4.278v2.509H23V9.254zm-4.278 1.882h3.056v1.254c0 .345.275.627.61.627h5.5a.621.621 0 0 0 .612-.627v-1.254h3.056v2.508H18.722v-2.508z"/>
        </g>
    </g>
</svg>
