<svg xmlns="http://www.w3.org/2000/svg" width="54" height="54" viewBox="0 0 54 54">
    <g fill="none" fill-rule="evenodd">
        <path stroke="#EDEDED" d="M-63.5-27.5h180v137h-180z"/>
        <g fill="#93C64A" fill-rule="nonzero">
            <path d="M23.84 29.337H9.74a.74.74 0 0 1-.74-.74V20.47c0-1.836 1.595-3.33 3.555-3.33h1.532a.74.74 0 0 1 .617.33l2.419 3.64 2.413-3.638a.74.74 0 0 1 .616-.331h.873c1.96 0 3.555 1.493 3.555 3.329v8.126a.74.74 0 0 1-.74.74zm-13.36-1.48H23.1V20.47c0-1.02-.93-1.85-2.075-1.85h-.476l-2.81 4.238a.74.74 0 0 1-1.233 0l-2.815-4.237h-1.136c-1.144 0-2.075.829-2.075 1.849v7.386z"/>
            <path d="M20.154 29.337a.74.74 0 0 1-.74-.74v-3.78a.74.74 0 1 1 1.48 0v3.78a.74.74 0 0 1-.74.74zM13.426 29.337a.74.74 0 0 1-.74-.74v-3.78a.74.74 0 1 1 1.48 0v3.78a.74.74 0 0 1-.74.74zM16.79 16.262a4.136 4.136 0 0 1-4.131-4.13A4.136 4.136 0 0 1 16.79 8a4.136 4.136 0 0 1 4.132 4.131 4.136 4.136 0 0 1-4.132 4.131zm0-6.782a2.654 2.654 0 0 0-2.651 2.651 2.655 2.655 0 0 0 2.651 2.651 2.655 2.655 0 0 0 2.652-2.65A2.654 2.654 0 0 0 16.79 9.48zM45.26 45h-14.1a.74.74 0 0 1-.74-.74v-8.126c0-1.836 1.594-3.33 3.555-3.33h1.532a.74.74 0 0 1 .616.331l2.42 3.64 2.412-3.64a.74.74 0 0 1 .617-.33h.872c1.96 0 3.556 1.493 3.556 3.329v8.126a.74.74 0 0 1-.74.74zM31.9 43.52h12.62v-7.386c0-1.02-.932-1.85-2.076-1.85h-.475l-2.81 4.238a.738.738 0 0 1-.615.33h-.001a.74.74 0 0 1-.617-.33l-2.816-4.237h-1.135c-1.145 0-2.075.83-2.075 1.849v7.386z"/>
            <path d="M41.573 45a.74.74 0 0 1-.74-.74v-3.78a.74.74 0 1 1 1.48 0v3.78a.74.74 0 0 1-.74.74zM34.845 45a.74.74 0 0 1-.74-.74v-3.78a.74.74 0 1 1 1.48 0v3.78a.74.74 0 0 1-.74.74zM38.21 31.926a4.136 4.136 0 0 1-4.132-4.131 4.136 4.136 0 0 1 4.132-4.132 4.136 4.136 0 0 1 4.131 4.132 4.136 4.136 0 0 1-4.131 4.13zm0-6.783a2.655 2.655 0 0 0-2.652 2.652 2.654 2.654 0 0 0 2.652 2.65 2.654 2.654 0 0 0 2.651-2.65 2.655 2.655 0 0 0-2.651-2.652zM39.635 21.663a.739.739 0 0 1-.674-.432 12.556 12.556 0 0 0-15.57-6.656.74.74 0 0 1-.483-1.4 14.032 14.032 0 0 1 17.399 7.44.74.74 0 0 1-.672 1.048zM27.479 40.597a14.06 14.06 0 0 1-12.784-8.208.74.74 0 1 1 1.346-.617 12.585 12.585 0 0 0 12.805 7.272.74.74 0 0 1 .159 1.471c-.51.055-1.02.082-1.526.082z"/>
        </g>
    </g>
</svg>
