<svg xmlns="http://www.w3.org/2000/svg" width="54" height="54" viewBox="0 0 54 54">
    <g fill="none" fill-rule="evenodd">
        <path stroke="#EDEDED" d="M-65.5-27.5h180v137h-180z"/>
        <g fill="#93C64A" fill-rule="nonzero">
            <path d="M46 18.887V16.65c0-.79-.633-1.433-1.411-1.433H10.412c-.778 0-1.41.643-1.41 1.433v2.236H9v5.733h.001v14.1c0 .791.633 1.433 1.41 1.433H44.59c.778 0 1.41-.642 1.41-1.432V24.62H46v-5.733zM9.566 16.65c0-.474.38-.86.846-.86h34.177c.467 0 .846.386.846.86v2.236H9.565V16.65zm35.869 22.07c0 .473-.38.859-.846.859H10.412a.854.854 0 0 1-.846-.86v-14.1h35.869v14.1z"/>
            <path d="M14.37 28.63h25.382a.284.284 0 0 0 .282-.287.284.284 0 0 0-.282-.287H14.37a.284.284 0 0 0-.282.287c0 .158.126.286.282.286zM14.37 31.494h19.178a.284.284 0 0 0 .282-.286.284.284 0 0 0-.282-.287H14.37a.284.284 0 0 0-.282.287c0 .158.126.286.282.286z"/>
        </g>
    </g>
</svg>
