<svg xmlns="http://www.w3.org/2000/svg" width="54" height="54" viewBox="0 0 54 54">
    <g fill="none" fill-rule="evenodd">
        <path stroke="#EDEDED" d="M-63.5-27.5h180v137h-180z"/>
        <g fill="#93C64A" fill-rule="nonzero">
            <path d="M40.825 14.355h-28.65A4.183 4.183 0 0 0 8 18.537v18.927a4.183 4.183 0 0 0 4.175 4.181h28.65A4.183 4.183 0 0 0 45 37.464V18.537a4.183 4.183 0 0 0-4.175-4.182zm2.53 23.108a2.535 2.535 0 0 1-2.53 2.535h-2.073V38.59a.823.823 0 1 0-1.645 0v1.408H34.18V38.59a.823.823 0 1 0-1.644 0v1.408h-2.928V38.59a.823.823 0 1 0-1.644 0v1.408h-2.928V38.59a.823.823 0 1 0-1.644 0v1.408h-2.927V38.59a.823.823 0 1 0-1.645 0v1.408h-2.927V38.59a.823.823 0 1 0-1.645 0v1.408h-2.073a2.535 2.535 0 0 1-2.53-2.535V18.537a2.535 2.535 0 0 1 2.53-2.535h2.073v1.408a.823.823 0 1 0 1.645 0v-1.408h2.927v1.408a.823.823 0 1 0 1.644 0v-1.408h2.928v1.408a.823.823 0 1 0 1.644 0v-1.408h2.928v1.408a.823.823 0 1 0 1.644 0v-1.408h2.927v1.408a.823.823 0 1 0 1.645 0v-1.408h2.927v1.408a.823.823 0 1 0 1.645 0v-1.408h2.073a2.535 2.535 0 0 1 2.53 2.535v18.926z"/>
            <path d="M20.722 27.566a3.267 3.267 0 0 0-2.299-5.579 3.267 3.267 0 0 0-2.299 5.579 4.181 4.181 0 0 0-1.876 3.487v1.35c0 .887.721 1.61 1.608 1.61h5.133c.887 0 1.608-.723 1.608-1.61v-1.35a4.179 4.179 0 0 0-1.875-3.487zm-3.915-2.314a1.62 1.62 0 0 1 1.616-1.618 1.62 1.62 0 0 1 0 3.237 1.62 1.62 0 0 1-1.616-1.619zm4.147 7.114h-5.061v-1.313a2.535 2.535 0 0 1 2.53-2.534 2.536 2.536 0 0 1 2.53 2.534v1.313zM37.93 21.987H26.575a.823.823 0 0 0 0 1.647H37.93a.823.823 0 0 0 0-1.647zM37.789 27.176H26.505a.823.823 0 0 0 0 1.648h11.284a.823.823 0 0 0 0-1.648zM37.648 32.366H26.434a.823.823 0 0 0 0 1.647h11.214a.823.823 0 0 0 0-1.647z"/>
        </g>
    </g>
</svg>
