<svg xmlns="http://www.w3.org/2000/svg" width="54" height="54" viewBox="0 0 54 54">
    <g fill="none" fill-rule="evenodd">
        <path stroke="#EDEDED" d="M-63.5-27.5h180v137h-180z"/>
        <g fill="#93C64A" fill-rule="nonzero">
            <path d="M28.004 17.726v-4.995a.504.504 0 0 0-1.008 0v4.995a2.15 2.15 0 0 0-1.578 1.574h-5.064a.504.504 0 1 0 0 1.007h5.06a2.15 2.15 0 0 0 2.087 1.651 2.152 2.152 0 0 0 2.15-2.149c0-1.01-.705-1.855-1.647-2.083zM27.5 20.95a1.142 1.142 0 0 1 0-2.282c.63 0 1.142.513 1.142 1.141 0 .63-.512 1.141-1.142 1.141zM27.5 9.635a.504.504 0 0 0 .504-.504v-1.47a.504.504 0 0 0-1.008 0v1.47c0 .279.226.504.504.504zM27.5 29.983a.504.504 0 0 0-.504.504v1.47a.504.504 0 0 0 1.008 0v-1.47a.504.504 0 0 0-.504-.504zM23.371 9.948a.505.505 0 0 0 .948-.346l-.504-1.382a.505.505 0 0 0-.947.345l.503 1.383zM31.629 29.67a.504.504 0 1 0-.947.345l.503 1.384a.505.505 0 0 0 .947-.346l-.503-1.382zM20.245 11.954a.505.505 0 0 0 .773-.648l-.946-1.127a.505.505 0 0 0-.773.648l.946 1.127zM34.755 27.664a.505.505 0 0 0-.772.649l.947 1.126a.505.505 0 0 0 .772-.648l-.947-1.127zM18.498 14.034l-1.275-.736a.505.505 0 0 0-.504.872l1.274.736a.505.505 0 0 0 .505-.872zM38.466 26.135a.504.504 0 0 0-.184-.688l-1.275-.736a.504.504 0 0 0-.504.873l1.275.735c.24.14.55.057.688-.184zM15.439 18.196l1.45.256a.504.504 0 0 0 .176-.993l-1.45-.256a.503.503 0 1 0-.176.992zM39.562 21.423l-1.45-.256a.503.503 0 1 0-.175.992l1.45.256a.504.504 0 0 0 .175-.992zM17.473 21.575a.505.505 0 0 0-.584-.408l-1.45.256a.503.503 0 1 0 .175.992l1.45-.256a.503.503 0 0 0 .409-.584zM37.527 18.043c.048.273.31.457.584.409l1.45-.256a.503.503 0 1 0-.175-.993l-1.45.256a.503.503 0 0 0-.409.584zM17.993 24.711l-1.274.736a.503.503 0 1 0 .504.872l1.275-.735a.503.503 0 1 0-.505-.873zM37.007 14.907l1.274-.736a.503.503 0 1 0-.504-.872l-1.275.736a.503.503 0 1 0 .505.872zM20.245 27.664l-.946 1.127a.504.504 0 1 0 .773.648l.946-1.126a.504.504 0 1 0-.773-.649zM34.93 10.179l-.947 1.127a.504.504 0 1 0 .772.648l.947-1.127a.504.504 0 1 0-.772-.648zM24.018 29.37a.507.507 0 0 0-.647.3l-.503 1.383a.504.504 0 1 0 .947.346l.504-1.383a.503.503 0 0 0-.301-.646zM31.831 7.92a.506.506 0 0 0-.646.3l-.504 1.383a.504.504 0 1 0 .948.345l.503-1.382a.503.503 0 0 0-.301-.647z"/>
            <path d="M43.21 40.248V37.55l.002-.011a.504.504 0 0 0-.505-.504H28.004v-2.43c7.94-.266 14.317-6.799 14.317-14.796 0-2.124-.453-4.144-1.263-5.973 1.364-1.846 1.19-4.474-.457-6.119a4.664 4.664 0 0 0-5.701-.73A14.728 14.728 0 0 0 27.5 5c-2.694 0-5.22.725-7.399 1.985a4.672 4.672 0 0 0-5.704.73c-1.652 1.645-1.825 4.273-.456 6.123a14.709 14.709 0 0 0-1.262 5.971c0 7.997 6.377 14.53 14.317 14.796v2.43H12.293a.504.504 0 0 0-.505.504V40.249a3.898 3.898 0 0 0-3.393 3.858A3.9 3.9 0 0 0 12.293 48a3.9 3.9 0 0 0 3.897-3.894 3.898 3.898 0 0 0-3.393-3.858v-2.205h14.198v2.206a3.898 3.898 0 0 0-3.392 3.857A3.9 3.9 0 0 0 27.5 48a3.9 3.9 0 0 0 3.897-3.894 3.898 3.898 0 0 0-3.394-3.858v-2.205H42.2v2.206a3.898 3.898 0 0 0-3.39 3.857A3.9 3.9 0 0 0 42.707 48a3.9 3.9 0 0 0 3.898-3.894 3.898 3.898 0 0 0-3.395-3.858zM15.18 44.106a2.89 2.89 0 0 1-2.888 2.886 2.89 2.89 0 0 1-2.889-2.886 2.89 2.89 0 0 1 2.889-2.887 2.89 2.89 0 0 1 2.888 2.887zM39.888 8.429a3.721 3.721 0 0 1 .656 4.343 14.906 14.906 0 0 0-4.652-5.166 3.69 3.69 0 0 1 3.996.823zm-24.777 0a3.699 3.699 0 0 1 4-.824 15.057 15.057 0 0 0-4.652 5.175 3.71 3.71 0 0 1 .652-4.351zM30.39 44.106a2.89 2.89 0 0 1-2.889 2.886 2.89 2.89 0 0 1-2.889-2.886 2.89 2.89 0 0 1 2.889-2.887 2.89 2.89 0 0 1 2.889 2.887zM27.5 33.61c-7.616 0-13.813-6.19-13.813-13.8 0-7.626 6.248-13.802 13.813-13.802 7.582 0 13.813 6.174 13.813 13.801 0 7.61-6.197 13.801-13.813 13.801zm15.207 13.382a2.89 2.89 0 0 1-2.888-2.886 2.89 2.89 0 0 1 2.888-2.887 2.89 2.89 0 0 1 2.889 2.887 2.89 2.89 0 0 1-2.889 2.886z"/>
        </g>
    </g>
</svg>
